<?xml version="1.0" standalone="no"?>
<!DOCTYPE svg PUBLIC "-//W3C//DTD SVG 1.1//EN" "http://www.w3.org/Graphics/SVG/1.1/DTD/svg11.dtd" >
<svg xmlns="http://www.w3.org/2000/svg">
<metadata></metadata>
<defs>
<font id="leberkaas_groteskregular" horiz-adv-x="1150" >
<font-face units-per-em="2048" ascent="1536" descent="-512" />
<missing-glyph horiz-adv-x="690" />
<glyph horiz-adv-x="0" />
<glyph unicode="&#xd;" horiz-adv-x="921" />
<glyph horiz-adv-x="0" />
<glyph horiz-adv-x="0" />
<glyph unicode=" "  horiz-adv-x="690" />
<glyph unicode="&#x09;" horiz-adv-x="690" />
<glyph unicode="&#xa0;" horiz-adv-x="690" />
<glyph unicode="!" horiz-adv-x="585" d="M229 111q0 -53 36 -87t85 -34q47 0 83 33.5t36 87.5q0 47 -36 82.5t-83 35.5q-49 0 -85 -35.5t-36 -82.5zM248 369v1271h203v-1271h-203z" />
<glyph unicode="$" horiz-adv-x="1253" d="M115 203l133 166q6 -6 30.5 -33t65.5 -58.5t98.5 -57t128.5 -27.5v577q-184 66 -291.5 155t-142.5 199q-31 102 -3 194.5t92.5 164t156.5 117t188 55.5v160h107v-156q80 -4 142.5 -25.5t110.5 -51.5t82 -64.5t56 -65.5l-170 -135q-10 18 -28.5 38.5t-45 40t-62.5 33 t-85 17.5v-492q184 -70 295.5 -169t146.5 -228q29 -111 6.5 -209t-84 -175t-155.5 -126t-209 -61v-156h-107v152h-4q-82 2 -154.5 26.5t-131 59t-101.5 71.5t-65 64zM340 1184q14 -47 73.5 -95.5t157.5 -93.5v443q-41 0 -88 -19.5t-85 -53.5t-56 -80t-2 -101zM678 199 q49 8 100 34.5t87 67.5t51.5 93t-5.5 112q-16 63 -75.5 117.5t-157.5 99.5v-524z" />
<glyph unicode="%" horiz-adv-x="1630" d="M115 0l1175 1640h226l-1176 -1640h-225zM207 1386q0 61 23.5 114.5t63.5 93.5t93 63.5t115 23.5q61 0 116.5 -23.5t95.5 -63.5t63.5 -93t23.5 -115q0 -61 -23.5 -115t-63.5 -94t-95.5 -62.5t-116.5 -22.5t-114.5 22.5t-93.5 62.5t-63.5 94t-23.5 115zM414 1386 q0 -39 26.5 -63.5t61.5 -24.5q39 0 65.5 25t26.5 63q0 39 -26.5 64t-65.5 25q-35 0 -61.5 -25t-26.5 -64zM838 262q0 61 23.5 116.5t64.5 95.5t96.5 63.5t116.5 23.5q59 0 113.5 -23.5t94 -63.5t63.5 -95t24 -117q0 -61 -24 -114.5t-63.5 -93.5t-94 -63.5t-113.5 -23.5 q-61 0 -116.5 23.5t-96.5 63.5t-64.5 93.5t-23.5 114.5zM1047 262q0 -35 26.5 -61.5t65.5 -26.5q35 0 60.5 26.5t25.5 61.5q0 39 -25.5 65.5t-60.5 26.5q-39 0 -65.5 -26.5t-26.5 -65.5z" />
<glyph unicode="&#x26;" horiz-adv-x="1474" d="M115 506q0 193 121 309q-121 117 -121 305q0 113 42 211.5t114.5 172t171 116.5t210.5 43q119 0 222.5 -48t175.5 -126l-166 -135q-45 47 -103.5 72.5t-128.5 25.5q-68 0 -126 -25.5t-103 -70.5t-70.5 -105.5t-25.5 -130.5q0 -66 27.5 -109.5t72.5 -71.5t104.5 -40 t120.5 -14v-144q-53 0 -109.5 -7t-104.5 -30.5t-78.5 -70.5t-32.5 -127q-2 -68 23.5 -126t70.5 -103.5t104.5 -71t126.5 -25.5q70 0 130.5 23.5t105.5 65.5t70.5 102.5t25.5 134.5v379h375v-213h-162v-166q0 -115 -43 -214t-116.5 -171t-173 -113t-212.5 -41t-211 42 t-170.5 115t-114.5 171t-42 211z" />
<glyph unicode="(" horiz-adv-x="874" d="M115 829q0 164 40 297.5t98 240t127 184t129 131t102 80t48 30.5l101 -184q-33 -18 -70 -47q-31 -25 -68.5 -62t-78.5 -84q-106 -129 -160.5 -274.5t-54.5 -311.5q0 -133 31.5 -242.5t79.5 -196.5t103.5 -150.5t103.5 -105.5t80 -62.5t34 -20.5l-101 -184q-6 2 -48 28.5 t-102 78t-129 130t-127 185t-98 241t-40 299.5z" />
<glyph unicode=")" horiz-adv-x="874" d="M115 51l33 21q32 20 80 62t104.5 105.5t104.5 150.5t80 196.5t32 242.5q0 166 -54.5 311.5t-158.5 274.5q-84 98 -150.5 145.5t-70.5 47.5l55 92l51 92q6 -4 48 -30.5t101.5 -80t128 -131t127 -184t96.5 -240t38 -297.5q0 -166 -38 -300t-96.5 -240.5t-127 -185 t-128 -130t-101.5 -78t-48 -28.5z" />
<glyph unicode="," horiz-adv-x="571" d="M115 -276l147 585l195 -55l-195 -586z" />
<glyph unicode="-" horiz-adv-x="1114" d="M207 420v203h700v-203h-700zM207 420v203h700v-203h-700z" />
<glyph unicode="." horiz-adv-x="468" d="M115 111q0 47 35.5 82.5t85.5 35.5q47 0 82.5 -35.5t35.5 -82.5q0 -53 -35.5 -87t-82.5 -34q-49 0 -85 34t-36 87z" />
<glyph unicode="/" horiz-adv-x="1294" d="M115 0l852 1630h213l-852 -1630h-213z" />
<glyph unicode="0" horiz-adv-x="1515" d="M115 811q0 174 36.5 318.5t102.5 252.5q84 135 212 206t294 71q164 0 291 -70.5t211 -206.5q70 -109 104.5 -253t34.5 -318q0 -147 -30 -293.5t-109 -277.5q-84 -135 -211 -204t-291 -69q-166 0 -294 68.5t-212 204.5q-66 109 -102.5 253t-36.5 318zM328 811 q0 -88 14 -197.5t60.5 -206t131.5 -162t226 -65.5q133 0 214 57.5t128 145.5q4 10 13 28.5t15.5 41t6.5 49t-13 55.5q-29 66 -116.5 117t-229.5 86q-299 72 -446 170zM395 1161q6 -8 24.5 -28.5t67 -48t130 -59.5t212.5 -62q115 -25 204 -65t155 -91v4q0 59 -6 129 t-22.5 140.5t-46.5 136t-77 116.5t-115.5 82t-160.5 31q-70 0 -125 -17.5t-98 -47t-75 -69.5t-56 -87q-4 -6 -10.5 -30t-0.5 -34z" />
<glyph unicode="1" horiz-adv-x="667" d="M162 1427v213h344v-1640h-211v1427h-133z" />
<glyph unicode="2" horiz-adv-x="1267" d="M70 0v207q23 14 68.5 43t107 69.5t132.5 91t142 109.5q209 174 317.5 325.5t98.5 268.5q-4 72 -30.5 133.5t-72 107.5t-102.5 71.5t-123 25.5q-111 0 -191.5 -64.5t-135.5 -162.5l-162 129q33 68 83 124t113.5 98t137 64.5t155.5 22.5q106 0 201.5 -41t168.5 -112.5 t118 -169t51 -212.5q14 -174 -111 -368.5t-383 -405.5q-47 -39 -97 -74.5t-95 -68.5h682v-211h-1073z" />
<glyph unicode="3" horiz-adv-x="1257" d="M100 281l172 133q59 -106 133 -173t189 -67q76 0 139.5 29.5t108.5 80t70.5 116t25.5 134t-25.5 135t-83.5 119.5q-55 49 -110 69t-107.5 20t-97.5 -13.5t-79 -31t-54.5 -33t-22.5 -17.5l-114 121l520 524h-621v213h953v-180l-387 -387q170 -28 272 -137 q78 -80 117 -184.5t40 -213t-34 -212t-104.5 -184.5t-171 -131t-234.5 -48q-82 0 -157 23.5t-138 65.5t-114.5 100.5t-84.5 128.5z" />
<glyph unicode="4" horiz-adv-x="1359" d="M115 469l73 213l324 958h221l-323 -958h354v266h213v-266h266v-213h-266v-469h-213v469h-649z" />
<glyph unicode="5" horiz-adv-x="1271" d="M115 295l176 137q12 -53 41.5 -100t73 -81t95.5 -53.5t111 -17.5q70 2 130.5 33t105.5 80t71.5 111.5t29.5 128t-21.5 131t-79.5 118.5q-51 47 -106.5 69.5t-111 27t-110.5 -6t-104 -28.5q-117 -43 -232 -129v925h863v-213h-652v-423q39 31 112 50t159 16t176 -35.5 t162 -108.5q80 -82 116.5 -185.5t34.5 -210t-40 -208t-107.5 -180.5t-170 -127t-225.5 -48q-84 0 -159.5 23.5t-140 66.5t-116 103.5t-81.5 134.5z" />
<glyph unicode="6" horiz-adv-x="1261" d="M115 498q0 84 21.5 161.5t66.5 147.5l502 833h249l-379 -626q6 0 50.5 2t108 -9.5t136.5 -41.5t134 -91q74 -72 108.5 -170t34.5 -206q0 -109 -37 -207t-106 -172q-72 -78 -168.5 -119t-204.5 -41q-109 0 -205 41t-168 119q-70 74 -106.5 172t-36.5 207zM328 498 q0 -72 22.5 -131.5t63.5 -103.5t96 -68.5t121 -24.5t122 24.5t97 68.5t63.5 103.5t22.5 131.5q0 70 -22.5 130t-63.5 104t-97.5 68.5t-121.5 24.5q-66 0 -121 -24.5t-96 -68.5t-63.5 -104.5t-22.5 -129.5z" />
<glyph unicode="7" horiz-adv-x="1267" d="M115 1427v213h1106v-96l-770 -1544h-234l731 1427h-833z" />
<glyph unicode="8" horiz-adv-x="1267" d="M115 506q0 109 37.5 208t109.5 171q43 49 96 82q-29 20 -51 55t-37.5 76t-22.5 84t-7 80q0 84 28.5 157.5t81.5 128.5q55 59 128 92t157 33t156.5 -32.5t126.5 -92.5q55 -55 82.5 -128.5t27.5 -157.5q0 -72 -18.5 -127.5t-40.5 -92.5q-25 -45 -58 -75q58 -35 99 -82 q70 -72 105.5 -171.5t35.5 -207.5q0 -106 -36 -205.5t-105 -171.5q-74 -80 -170.5 -121t-204.5 -41q-111 0 -206 41t-167 121q-72 72 -109.5 171t-37.5 206zM328 506q0 -72 23.5 -131.5t64.5 -102.5t97 -67.5t122 -24.5t122 24.5t97 67.5t63.5 102.5t22.5 131.5t-22.5 132 t-63.5 103t-97.5 68t-121.5 25q-66 0 -122 -25t-97 -68t-64.5 -103t-23.5 -132zM451 1262q0 -86 53 -141.5t131 -55.5q80 0 130 55.5t50 141.5q0 88 -50 143t-130 55q-78 0 -131 -55t-53 -143z" />
<glyph unicode="9" horiz-adv-x="1267" d="M115 1139q0 111 37.5 208t109.5 173q72 78 167 119.5t206 41.5q109 0 205 -42t170 -119q70 -76 105.5 -173.5t35.5 -207.5q0 -84 -20.5 -161t-65.5 -149l-504 -829h-248l377 623q-4 0 -48 -2.5t-107.5 8t-137.5 40.5t-135 91q-72 72 -109.5 171t-37.5 208zM328 1139 q0 -72 23.5 -132.5t64.5 -103.5t97 -67.5t122 -24.5t122 24.5t97 67.5t63.5 103.5t22.5 132.5q0 70 -22.5 131t-63.5 105t-97 69.5t-122 25.5t-122 -25.5t-97 -69.5t-64.5 -105.5t-23.5 -130.5z" />
<glyph unicode=":" horiz-adv-x="468" d="M115 111q0 47 35.5 82.5t85.5 35.5q47 0 82.5 -35.5t35.5 -82.5q0 -53 -35.5 -87t-82.5 -34q-49 0 -85 34t-36 87zM115 874q0 49 35.5 85t85.5 36q47 0 82.5 -35.5t35.5 -85.5q0 -51 -35.5 -84.5t-82.5 -33.5q-49 0 -85 33.5t-36 84.5z" />
<glyph unicode=";" horiz-adv-x="598" d="M115 -276l147 585l195 -55l-195 -586zM244 866q0 47 35.5 83t85.5 36q51 0 84.5 -36t33.5 -83q0 -53 -33.5 -87t-84.5 -34q-49 0 -85 34t-36 87z" />
<glyph unicode="=" horiz-adv-x="1036" />
<glyph unicode="?" horiz-adv-x="1058" d="M115 1501q66 78 156 120t194 42q98 0 185 -28.5t152.5 -85t103.5 -139.5t38 -189q0 -92 -28.5 -169t-79 -135.5t-120 -98.5t-149.5 -58v-391h-202v604q96 -43 202 0q78 35 126 91t48 157q0 63 -21.5 108t-59 75t-88 43t-107.5 13q-55 0 -102.5 -22.5t-86.5 -59.5z M346 111q0 47 36 82.5t83 35.5q53 0 87 -35.5t34 -82.5q0 -53 -34 -87t-87 -34q-47 0 -83 34t-36 87z" />
<glyph unicode="@" horiz-adv-x="2017" d="M115 442q0 193 63.5 360t186.5 300q125 131 288.5 200.5t350.5 69.5q92 0 183 -15.5t175 -47t159 -80.5t134 -119q125 -147 184 -310t66.5 -312.5t-30.5 -271.5t-106 -189q-84 -84 -183 -104.5t-188 -1t-153.5 67.5t-75.5 103q-51 -35 -112.5 -54.5t-126.5 -19.5 q-86 0 -159 34t-124 93.5t-77.5 139.5t-20.5 172t44 173t97.5 141t137 94t163.5 34q61 0 117.5 -19.5t103.5 -54.5l5 56h184q-20 -250 -28.5 -399.5t-1.5 -231.5t31.5 -110.5t67.5 -33.5q84 -2 130.5 33t68 86t24.5 110.5t3 106.5q0 160 -53.5 297.5t-145.5 236.5 t-219 155.5t-274 56.5q-150 0 -279 -56.5t-223 -155.5t-148.5 -236.5t-54.5 -297.5q0 -158 53.5 -293t146.5 -235t221 -156.5t279 -56.5q248 0 387 123l158 -115q-117 -94 -254 -143t-291 -49q-186 0 -350 71.5t-284 204.5q-123 129 -186.5 295t-63.5 354zM733 457 q-4 -53 10.5 -100.5t43 -81t68.5 -53t89 -19.5q98 0 166 57.5t78 196.5q6 70 -8.5 119t-43 79.5t-69.5 45t-90 14.5t-92 -19.5t-76 -54.5t-53.5 -82t-22.5 -102z" />
<glyph unicode="A" horiz-adv-x="1548" d="M82 0l582 1640h221l579 -1640h-221l-129 383h-676l-135 -383h-221zM506 586h534l-266 768z" />
<glyph unicode="B" horiz-adv-x="1175" d="M115 0v1640h428q12 0 50 -1t87 -11t104.5 -33.5t104.5 -68.5q55 -55 85 -130t30 -165q0 -104 -31 -182t-92 -138q16 -14 35.5 -28.5t37.5 -30.5q70 -66 104 -144.5t34 -187.5q0 -111 -34 -207t-104 -161q-53 -49 -104 -79t-98 -45.5t-93.5 -20.5t-91.5 -7h-452zM328 217 h280q31 0 81 11.5t96 43.5t78 92q27 50 27 127q0 14 -1 29q-6 96 -47 149.5t-89 79t-91.5 31.5t-57.5 8q-10 2 -44 2.5t-75 0.5t-84 -1.5t-73 -1.5v-571zM328 999h221q35 0 69 9q29 6 61 19t54 38q29 29 44.5 67.5t15.5 98.5q0 86 -52 137q-27 25 -60.5 37t-64.5 16 q-37 6 -73 6h-215v-428z" />
<glyph unicode="C" horiz-adv-x="1538" d="M115 819q0 166 54 317.5t163 268.5q111 129 255 195.5t306 66.5q291 0 504 -197l-172 -139q-70 59 -154 92t-178 33q-117 0 -220.5 -50t-180 -137t-120.5 -203t-44 -247t44 -245.5t120.5 -200.5t180 -135.5t220.5 -49.5q104 0 196.5 39t167.5 105l166 -133 q-109 -109 -245 -165.5t-285 -56.5q-162 0 -306.5 67t-254.5 192q-109 117 -163 269t-54 314z" />
<glyph unicode="D" horiz-adv-x="1501" d="M115 0v1640h460q14 -2 80 -4t155 -21.5t191.5 -63.5t192.5 -128q225 -213 225 -604q0 -383 -225 -602q-84 -78 -176 -122t-175 -65.5t-148.5 -25.5t-96.5 -4h-483zM328 207h266q2 0 48 2t114.5 17.5t146.5 49.5t144 97q84 78 121.5 189.5t37.5 256.5q0 147 -38 259 t-121 190q-68 63 -148 96t-149.5 47t-115.5 15t-48 1h-258v-1220z" />
<glyph unicode="E" horiz-adv-x="1179" d="M115 0v1640h977v-213h-764v-483h671v-211h-671v-522h782v-211h-995z" />
<glyph unicode="F" horiz-adv-x="1161" d="M115 -4v1644h977v-213h-764v-528h671v-213h-671v-690h-213z" />
<glyph unicode="G" horiz-adv-x="1507" d="M82 819q0 166 56.5 317.5t160.5 268.5q111 129 257 195.5t310 66.5q139 0 266.5 -49t231.5 -148l-166 -139q-72 59 -154.5 92t-177.5 33q-117 0 -221 -50t-182 -137t-123 -203t-45 -247t45 -245.5t123 -200.5t182.5 -135.5t220.5 -49.5q86 0 167 27t147 80v405h-443v211 h654v-712q-106 -109 -240.5 -165.5t-284.5 -56.5q-164 0 -310 67t-257 192q-104 117 -160.5 269t-56.5 314z" />
<glyph unicode="H" horiz-adv-x="1478" d="M115 -4v1644h213v-696h823v696h213v-1644h-213v737h-823v-737h-213z" />
<glyph unicode="I" horiz-adv-x="608" d="M115 0v203h84v1235h-84v202h379v-202h-84v-1235h84v-203h-379z" />
<glyph unicode="J" horiz-adv-x="770" d="M115 -10v209q125 0 191.5 42t96.5 93q37 59 39 135v969h-147v202h358v-1171q0 -2 -3 -38t-19.5 -89t-49 -115.5t-93 -115t-151.5 -87t-222 -34.5z" />
<glyph unicode="K" horiz-adv-x="1271" d="M115 0v1640h213v-667l565 667h231l-512 -612l568 -1028h-232l-473 862l-147 -184v-678h-213z" />
<glyph unicode="L" horiz-adv-x="1179" d="M115 -4v1644h213v-1433h782v-211h-995z" />
<glyph unicode="M" horiz-adv-x="1699" d="M115 0v1640h213l524 -718l520 718h213v-1640h-213v1280l-391 -539l-129 -180l-133 180l-391 539v-1280h-213z" />
<glyph unicode="N" horiz-adv-x="1419" d="M115 -4v1644h239l738 -1275v1275h213v-1644h-240l-737 1276v-1276h-213z" />
<glyph unicode="O" horiz-adv-x="1746" d="M92 815q0 166 56.5 316.5t160.5 269.5q111 129 257.5 195.5t307.5 66.5q160 0 306.5 -66.5t257.5 -195.5q104 -119 160.5 -269.5t56.5 -316.5q0 -164 -56.5 -315.5t-160.5 -270.5q-111 -125 -257.5 -191.5t-306.5 -66.5q-162 0 -308 66.5t-257 191.5 q-104 119 -160.5 270.5t-56.5 315.5zM303 815q0 -131 45 -245.5t123 -200.5t182.5 -135.5t220.5 -49.5q117 0 220.5 49.5t180.5 135.5t122 200.5t45 245.5t-45 247t-122 203t-180.5 137t-220.5 50t-221 -50t-182 -137t-123 -203t-45 -247z" />
<glyph unicode="P" horiz-adv-x="1179" d="M115 0v1640h397h76t115.5 -12t136.5 -43t133 -92q70 -66 103.5 -144.5t33.5 -187.5q0 -111 -34 -205t-103 -163q-53 -49 -107.5 -80t-104.5 -46.5t-94 -20.5t-81 -5h-258v-641h-213zM328 856h299q31 0 81 11.5t97 44t77 92.5q25 51 26 126q0 15 -1 31q-6 96 -47 149.5 t-89 79t-91 30.5t-57 7q-10 2 -48 2.5t-84.5 0.5t-92.5 -1.5t-70 -1.5v-571z" />
<glyph unicode="Q" horiz-adv-x="1769" d="M92 819q0 166 56.5 317.5t160.5 268.5q111 129 257.5 195.5t307.5 66.5q160 0 306.5 -66.5t257.5 -195.5q104 -117 160.5 -268.5t56.5 -317.5q0 -139 -41 -269t-121 -241l174 -176l-141 -143l-166 166q-104 -86 -227 -132.5t-259 -46.5q-162 0 -308 67t-257 192 q-104 117 -160.5 269t-56.5 314zM303 819q0 -131 45 -245.5t123 -200.5t182 -135.5t221 -49.5q193 0 332 121l-129 129l144 148l120 -125q47 76 74 167t27 191q0 131 -45 247t-122 203t-180.5 137t-220.5 50t-221 -50t-182 -137t-123 -203t-45 -247z" />
<glyph unicode="R" horiz-adv-x="1202" d="M115 -4v1644h397h75t114.5 -12t135 -43t136.5 -92q66 -66 99.5 -144.5t33.5 -187.5q0 -111 -35 -205t-104 -163q-55 -53 -110.5 -83t-111.5 -46l375 -668h-231l-359 645h-202v-645h-213zM328 856h299q31 0 80 11.5t95 44t76 92.5q25 51 26 126q0 15 -1 31 q-6 96 -46 149.5t-88 79t-91 30.5t-55 7t-50 2.5t-84.5 0.5t-91.5 -1.5t-69 -1.5v-571z" />
<glyph unicode="S" horiz-adv-x="1212" d="M115 199l139 166q4 -10 29.5 -38t68.5 -57.5t101.5 -53t132.5 -28.5q11 -1 23 0q57 0 115 16q68 20 118 60t74 100q12 31 13 67q0 33 -11 71q-23 72 -104 136t-216 118q-389 133 -455 364q-20 65 -20 124q0 48 13 94q30 100 106.5 171.5t187.5 110.5q101 35 215 36 q12 0 23 -1q82 -4 147.5 -25.5t114.5 -52.5t84 -66.5t55 -68.5l-166 -129q-10 18 -28.5 39.5t-46 41t-67.5 33t-93 15.5q-11 1 -22 1q-42 1 -90 -11q-62 -14 -114 -46t-82 -84q-19 -34 -19 -76q0 -22 5 -46q14 -63 98 -121t224 -105q195 -74 306 -173t150 -228 q14 -56 15 -105q0 -20 -3 -38q-8 -66 -26 -117q-23 -59 -55 -109q-80 -104 -201 -158q-113 -50 -253 -49h-21q-84 2 -159 27t-134.5 59.5t-103.5 71.5t-68 64z" />
<glyph unicode="T" horiz-adv-x="1386" d="M70 1427v213h1247v-213h-498v-1427h-211v1427h-538z" />
<glyph unicode="U" horiz-adv-x="1280" d="M100 465v1175h213v-1175q0 -63 27 -114.5t73 -87.5t104 -55.5t124 -19.5q61 0 118.5 17.5t101.5 53.5t73 87t33 119v1175h213v-1175q0 -20 -10.5 -87t-59.5 -157q-25 -41 -61.5 -84t-93 -77.5t-133.5 -56t-181 -21.5t-182 21.5t-135.5 56t-94 77.5t-59.5 84 q-27 45 -41 85t-20.5 72t-7.5 54.5t-1 32.5z" />
<glyph unicode="V" horiz-adv-x="1566" d="M92 1640h221l469 -1359l471 1359h222l-582 -1640h-221z" />
<glyph unicode="W" horiz-adv-x="2234" d="M92 1640h221l469 -1359l228 659l-250 700h221l133 -387l135 387h221l-245 -700l227 -659l469 1359h221l-579 -1640h-222l-227 635l-221 -635h-221z" />
<glyph unicode="X" horiz-adv-x="1433" d="M100 0l508 819l-508 821h217l398 -649l399 649h217l-512 -821l512 -819h-217l-399 649l-398 -649h-217z" />
<glyph unicode="Y" horiz-adv-x="1378" d="M92 1640h217l377 -770l383 770h217l-493 -987v-653h-213v653z" />
<glyph unicode="Z" horiz-adv-x="1464" d="M100 0v96l910 1331h-867v213h1192v-96l-911 -1333h940v-211h-1264z" />
<glyph unicode="a" d="M70 487q0 106 37.5 200.5t102 165.5t153 111t186.5 40q39 0 81 -7.5t80 -20.5t70.5 -34.5t53.5 -48.5v92h202v-985h-184l-18 70q-59 -49 -133 -76t-152 -27q-98 0 -186.5 41t-153 111.5t-102 166t-37.5 201.5zM272 487q0 -66 21.5 -123t59.5 -100t88.5 -68.5t107.5 -25.5 t110.5 25.5t92.5 68.5t62.5 100.5t23.5 122.5q0 63 -23.5 121t-62.5 101t-92.5 67.5t-110.5 24.5t-107.5 -24.5t-88.5 -67.5t-59.5 -100.5t-21.5 -121.5z" />
<glyph unicode="b" d="M115 0v1511h202v-637q20 27 53 51.5t71 41t80 27t83 10.5q100 0 187.5 -40t152 -111t102 -165t37.5 -201q0 -106 -37.5 -201.5t-102 -166t-151.5 -111.5t-188 -41q-80 0 -153.5 26.5t-133.5 76.5l-18 -70h-184zM313 487q0 -66 23.5 -123t63.5 -100t93.5 -68.5 t110.5 -25.5t107.5 25.5t88.5 68.5t59.5 100.5t21.5 122.5q0 63 -21.5 121t-59.5 101t-88 67.5t-108 24.5q-57 0 -110.5 -24.5t-93.5 -67.5t-63.5 -101t-23.5 -121z" />
<glyph unicode="c" horiz-adv-x="976" d="M70 487q0 106 37.5 201.5t103 167.5t154 113t188.5 41t190.5 -45t155.5 -117l-158 -129q-39 41 -86 64.5t-102 23.5q-59 0 -110.5 -25.5t-89.5 -68.5t-59.5 -101.5t-21.5 -124.5t21.5 -123t59.5 -99t89.5 -66.5t110.5 -24.5t109.5 25.5t89.5 72.5l170 -116 q-70 -86 -164 -135.5t-205 -49.5q-100 0 -188.5 41t-154 111t-103 164t-37.5 200z" />
<glyph unicode="d" horiz-adv-x="1157" d="M70 487q0 106 37.5 200.5t103 165.5t154 111t188.5 40q39 0 81 -10.5t81 -27t70.5 -41t52.5 -51.5v637h202v-1511h-184l-18 70q-59 -49 -132 -76t-153 -27q-100 0 -188.5 41t-154 111.5t-103 166t-37.5 201.5zM272 487q0 -66 21.5 -123t59.5 -100t89.5 -68.5t110.5 -25.5 q57 0 108.5 25.5t90.5 68.5t62.5 100.5t23.5 122.5q0 63 -23.5 121t-62.5 101t-90.5 67.5t-108.5 24.5q-59 0 -110.5 -24.5t-89.5 -67.5t-59.5 -100.5t-21.5 -121.5z" />
<glyph unicode="e" horiz-adv-x="1091" d="M70 494q0 106 37.5 200t103 164t154 111t188.5 41q92 0 176 -37t148.5 -101.5t105.5 -150.5t49 -186v-158h-741q31 -90 100.5 -146.5t161.5 -56.5q41 0 79 16.5t73 38.5l161 -129q-66 -59 -144.5 -94t-168.5 -35q-100 0 -188.5 41t-154 113t-103 166t-37.5 203zM276 535 h553q-8 57 -33.5 107t-62.5 87t-83 57.5t-97 20.5q-53 0 -100 -20.5t-84 -57.5t-61.5 -87t-31.5 -107z" />
<glyph unicode="f" horiz-adv-x="722" d="M92 801v184h107v6q0 106 37.5 194.5t102 152t153 98t186.5 34.5v-213q-57 0 -107.5 -17t-88.5 -51t-59.5 -83t-21.5 -115v-6h123v-184h-123v-801h-202v801h-107z" />
<glyph unicode="g" d="M70 483q0 106 37.5 201.5t102 166.5t153 112t186.5 41q39 0 81 -7.5t80 -20.5t70.5 -34.5t53.5 -48.5v92h202v-985q-2 -25 -9 -67t-26.5 -91t-52.5 -100t-86 -96q-135 -117 -360 -117q-39 0 -82 4t-88 10l33 199q74 -13 138 -13q144 0 230 68q37 33 57.5 73t29.5 73.5 t11.5 57.5t2.5 26v43q-59 -49 -133 -76t-152 -27q-98 0 -186.5 41t-153 110.5t-102 164t-37.5 200.5zM272 483q0 -63 21.5 -120.5t59.5 -100.5t88.5 -67.5t107.5 -24.5q55 0 105.5 22.5t89 62.5t62 92t28.5 114v51q-4 59 -28 112.5t-62.5 92.5t-89 61.5t-105.5 22.5 q-57 0 -107.5 -24.5t-88.5 -67.5t-59.5 -101.5t-21.5 -124.5z" />
<glyph unicode="h" horiz-adv-x="1114" d="M115 0v1511h202v-622q63 55 132 85t141 30q113 0 193.5 -39t134 -105.5t79 -157t25.5 -190.5v-512h-203v483q0 66 -14 124.5t-43 101.5t-72 67.5t-100 24.5q-133 0 -203 -85t-70 -233v-483h-202z" />
<glyph unicode="i" horiz-adv-x="552" d="M137 1235q0 55 42 96t97 41q59 0 98.5 -41t39.5 -96t-39.5 -97t-98.5 -42q-55 0 -97 42t-42 97zM174 0v985h203v-985h-203z" />
<glyph unicode="j" horiz-adv-x="659" d="M115 -276q78 0 129 51q23 23 36 51.5t19 57t8 56t2 46.5v999h203v-989q0 -16 -1 -56t-12.5 -91.5t-36 -107.5t-71.5 -106q-53 -55 -122.5 -82.5t-153.5 -31.5v203zM266 1235q0 55 42 96t98 41q59 0 98 -41t39 -96t-39 -97t-98 -42q-55 0 -97.5 42t-42.5 97z" />
<glyph unicode="k" horiz-adv-x="940" d="M115 0v1511h202v-940l295 414h222l-310 -436l346 -549h-221l-229 391l-103 -143v-248h-202z" />
<glyph unicode="l" horiz-adv-x="520" d="M137 0v1511h203v-1308h66v-203h-269z" />
<glyph unicode="m" horiz-adv-x="1824" d="M115 0v985h202v-92q66 53 134.5 82t138.5 29q131 0 221 -51.5t143 -137.5q25 29 56.5 62.5t73.5 61.5t95.5 46.5t118.5 18.5q113 0 195 -39t135 -105.5t79 -157t26 -190.5v-512h-203v487q0 63 -14.5 121t-44 101t-72.5 67.5t-101 24.5q-117 0 -186.5 -69.5t-83.5 -192.5 v-539h-203v487q0 63 -15 121t-44 101t-74 67.5t-102 24.5q-129 0 -201 -85t-72 -229v-487h-202z" />
<glyph unicode="n" horiz-adv-x="1110" d="M115 0v985h202v-96q66 55 134.5 85t138.5 30q113 0 195.5 -39t137 -105.5t80 -157t25.5 -190.5v-512h-203v483q0 66 -15 124.5t-44 101.5t-74 67.5t-102 24.5q-129 0 -201 -85t-72 -233v-483h-202z" />
<glyph unicode="o" horiz-adv-x="1101" d="M70 487q0 106 37.5 201.5t103 167.5t154 113t188.5 41q98 0 185 -41t152.5 -113t103.5 -167t38 -202q0 -106 -38 -200t-103.5 -164t-152.5 -111t-185 -41q-100 0 -188.5 41t-154 111t-103 164t-37.5 200zM272 487q0 -66 21.5 -123t59.5 -99t89.5 -66.5t110.5 -24.5 q57 0 107.5 24.5t88 66.5t59 99.5t21.5 122.5q0 66 -21.5 124.5t-59 101.5t-88 68.5t-107.5 25.5q-59 0 -110.5 -25.5t-89.5 -68.5t-59.5 -101.5t-21.5 -124.5z" />
<glyph unicode="p" d="M115 -520v1505h202v-96q55 55 131 92t156 37q100 0 187.5 -40t152 -110.5t102 -165t37.5 -200.5t-37.5 -201.5t-102 -166.5t-151.5 -111.5t-188 -40.5q-41 0 -83 7t-80 20.5t-70.5 33.5t-53.5 49v-612h-202zM313 502q0 -66 23.5 -123t63.5 -100t93.5 -69t110.5 -26 t107.5 26t88.5 69t59.5 100t21.5 123q0 63 -21.5 120.5t-59.5 100.5t-88.5 67.5t-107.5 24.5t-110.5 -24.5t-93.5 -67.5t-63.5 -100.5t-23.5 -120.5z" />
<glyph unicode="q" horiz-adv-x="1271" d="M115 498q0 106 37.5 201.5t103.5 166t153 111.5t185 41q80 0 155.5 -37t131.5 -92v96h202v-1309h74v-202h-276v618q-20 -29 -53 -49t-71 -33.5t-81 -20.5t-82 -7q-98 0 -185 39.5t-153 110.5t-103.5 164t-37.5 202zM317 498q0 -63 21.5 -121t59.5 -101t88.5 -67.5 t107.5 -24.5q59 0 111.5 24.5t92.5 67.5t63.5 100.5t23.5 121.5q0 66 -23.5 123t-63.5 100t-92.5 68.5t-111.5 25.5q-57 0 -107.5 -25.5t-88.5 -68.5t-59.5 -100.5t-21.5 -122.5z" />
<glyph unicode="r" horiz-adv-x="704" d="M70 782v203h284v-96q66 55 126 85t132 30h35t35 -5l-37 -206q-160 -4 -225.5 -83t-65.5 -227v-483h-202v782h-82z" />
<glyph unicode="s" horiz-adv-x="921" d="M92 166l166 125q2 -10 13.5 -27.5t33 -36t54 -32t79.5 -15.5h17q40 0 67 8q33 10 52.5 22.5t28.5 28t13 23.5t7.5 25.5t-7.5 40.5q-2 4 -10 14t-28.5 22.5t-53 24.5t-82.5 21q-252 49 -317 198q-17 45 -19 87q0 6 -1 12q-1 35 7 64q8 34 18.5 55.5t12.5 25.5q12 18 34 46 t59 54q38 24 98 42q54 16 131 16h18q61 -4 111.5 -20.5t88.5 -41t66.5 -54.5t47.5 -56l-162 -123q-16 29 -53 58.5t-107 33.5q-18 0 -51 -3t-63.5 -15.5t-48.5 -36.5q-10 -13 -9 -30q0 -14 6 -32q2 -4 10.5 -14t27 -21.5t49 -22.5t79.5 -20q252 -49 326 -192q28 -52 28 -115 q-1 -3 -1 -6q-2 -66 -31 -125q-45 -100 -139 -150q-87 -47 -207 -47h-19q-72 2 -128 21.5t-97 47.5t-69.5 59.5t-45.5 60.5z" />
<glyph unicode="t" horiz-adv-x="616" d="M92 819v166h111v258h203v-258h118v-166h-118v-819h-203v819h-111z" />
<glyph unicode="u" horiz-adv-x="1110" d="M82 475v510h203v-483q0 -66 15 -123t44 -100t73 -69t103 -26q129 0 201 86t72 232v483h202v-985h-184l-18 96q-66 -55 -134.5 -84.5t-138.5 -29.5q-113 0 -194.5 38.5t-136 105.5t-81 157t-26.5 192z" />
<glyph unicode="v" horiz-adv-x="1040" d="M70 985h202l248 -700l250 700h203l-350 -985h-203z" />
<glyph unicode="w" horiz-adv-x="1593" d="M70 985h202l211 -668l213 668h203l211 -668l213 668h203l-314 -985h-202l-213 668l-211 -668h-203z" />
<glyph unicode="x" horiz-adv-x="1050" d="M70 0l344 494l-344 491h221l233 -336l236 336h221l-346 -491l346 -494h-221l-236 336l-233 -336h-221z" />
<glyph unicode="y" horiz-adv-x="1054" d="M70 985h202l248 -700l250 700h203l-535 -1511h-250v202h115l117 324z" />
<glyph unicode="z" horiz-adv-x="1069" d="M92 0v115l539 667h-531v203h863v-115l-539 -667h553v-203h-885z" />
<glyph unicode="&#xab;" horiz-adv-x="995" d="M115 543l323 442l129 -92l-254 -350l254 -350l-129 -97zM479 543l318 442l129 -92l-254 -350l254 -350l-129 -97z" />
<glyph unicode="&#xad;" horiz-adv-x="1114" d="M207 420v203h700v-203h-700zM207 420v203h700v-203h-700z" />
<glyph unicode="&#xb4;" horiz-adv-x="1705" />
<glyph unicode="&#xbb;" horiz-adv-x="995" d="M70 193l252 350l-252 350l129 92l317 -442l-317 -447zM428 193l254 350l-254 350l129 92l324 -442l-324 -447z" />
<glyph unicode="&#xc3;" horiz-adv-x="1548" d="M82 0h221l135 383h676l129 -383h221l-579 1640h-221zM328 1917q2 2 14 23.5t35.5 49t57.5 54.5t81 43q41 14 110.5 10t161.5 -55q20 -14 48 -24.5t57 -0.5q12 4 21.5 11.5t17.5 17.5t16 22l185 -77q-2 -6 -12.5 -26.5t-32 -46.5t-55.5 -52.5t-79 -40.5q-35 -15 -84 -15 q-39 0 -86 12.5t-102 43.5q-59 41 -107 28q-25 -10 -42 -33.5t-21 -27.5zM506 586l268 768l266 -768h-534z" />
<glyph unicode="&#xc4;" horiz-adv-x="1548" d="M82 0l582 1640h221l579 -1640h-221l-129 383h-676l-135 -383h-221zM438 1954q0 55 41 96t96 41q59 0 99.5 -41t40.5 -96t-40.5 -97t-99.5 -42q-55 0 -96 41.5t-41 97.5zM506 586h534l-266 768zM829 1954q0 55 41 96t97 41q59 0 99 -41t40 -96t-40 -97t-99 -42 q-55 0 -96.5 41.5t-41.5 97.5z" />
<glyph unicode="&#xc5;" horiz-adv-x="1548" d="M92 0l539 1526q-70 41 -111 109.5t-41 148.5q0 61 23.5 116.5t65.5 97.5t97.5 65.5t116.5 23.5t115.5 -23.5t95.5 -65.5t65.5 -97.5t24.5 -116.5q0 -80 -41 -148.5t-106 -109.5l539 -1526h-222l-133 383h-678l-129 -383h-221zM516 586h535l-269 774zM653 1784 q0 -49 39 -87t90 -38q53 0 89 38t36 87q0 51 -36 90t-89 39q-51 0 -90 -39t-39 -90z" />
<glyph unicode="&#xd1;" horiz-adv-x="1419" d="M115 -4h213v1276l737 -1276h240v1644h-213v-1275l-738 1275h-239v-1644zM322 1917q4 2 16 23.5t35.5 49t57.5 54.5t81 43q41 14 110.5 10t159.5 -55q23 -14 50.5 -24.5t56.5 -0.5q12 4 21.5 11.5t17.5 17.5t16 22l184 -77q-2 -6 -12 -26.5t-31.5 -46.5t-55.5 -52.5 t-81 -40.5q-31 -15 -82 -15q-39 0 -86 12.5t-102 43.5q-63 43 -107 28q-25 -10 -43 -33.5t-22 -27.5z" />
<glyph unicode="&#xd5;" horiz-adv-x="1792" d="M115 815q0 166 56 316.5t161 269.5q111 129 257 195.5t308 66.5q160 0 306.5 -66.5t256.5 -195.5q104 -119 160.5 -269.5t56.5 -316.5q0 -164 -56 -315.5t-161 -270.5q-111 -125 -257 -191.5t-306 -66.5q-162 0 -308.5 66.5t-256.5 191.5q-104 119 -160.5 270.5 t-56.5 315.5zM326 815q0 -131 45 -245.5t122.5 -200.5t182 -135.5t221.5 -49.5t220.5 49.5t180 135.5t121.5 200.5t45 245.5t-45 247t-121.5 203t-180 137t-220.5 50t-221.5 -50t-182 -137t-122.5 -203t-45 -247zM516 1917q2 2 14.5 23.5t36 49t57 54.5t81.5 43 q41 14 110.5 10t161.5 -55q20 -14 49 -24.5t57 -0.5q20 6 39 29q8 10 17 22l184 -77q-2 -6 -13.5 -26.5t-33 -46.5t-54 -52.5t-79.5 -40.5q-31 -15 -84 -15q-37 0 -85 12.5t-104 43.5q-59 41 -106 28q-23 -10 -41 -33.5t-23 -27.5z" />
<glyph unicode="&#xd6;" horiz-adv-x="1728" d="M82 815q0 166 56.5 316.5t160.5 269.5q111 129 257 195.5t308 66.5q160 0 306.5 -66.5t256.5 -195.5q104 -119 161 -269.5t57 -316.5q0 -164 -56.5 -315.5t-161.5 -270.5q-111 -125 -257 -191.5t-306 -66.5q-162 0 -308 66.5t-257 191.5q-104 119 -160.5 270.5 t-56.5 315.5zM293 815q0 -131 45 -245.5t123 -200.5t182.5 -135.5t220.5 -49.5q117 0 220.5 49.5t180 135.5t122 200.5t45.5 245.5t-45.5 247t-122 203t-180 137t-220.5 50t-221 -50t-182 -137t-123 -203t-45 -247zM549 1954q0 55 41 96t96 41q59 0 99 -41t40 -96t-40 -97 t-99 -42q-55 0 -96 41.5t-41 97.5zM940 1954q0 55 41 96t96 41q59 0 99.5 -41t40.5 -96t-40.5 -97t-99.5 -42q-55 0 -96 41.5t-41 97.5z" />
<glyph unicode="&#xdc;" horiz-adv-x="1280" d="M100 465v1175h213v-1175q0 -63 27 -114.5t73 -87.5t104 -55.5t124 -19.5q61 0 118.5 17.5t101.5 53.5t73 87t33 119v1175h213v-1175q0 -20 -10.5 -87t-59.5 -157q-25 -41 -61.5 -84t-93 -77.5t-133.5 -56t-181 -21.5t-182 21.5t-135.5 56t-94 77.5t-59.5 84 q-27 45 -41 85t-20.5 72t-7.5 54.5t-1 32.5zM309 1954q0 55 41 96t96 41q59 0 99.5 -41t40.5 -96t-40.5 -97t-99.5 -42q-55 0 -96 41.5t-41 97.5zM700 1954q0 55 41 96t97 41q59 0 99 -41t40 -96t-40 -97t-99 -42q-55 0 -96.5 41.5t-41.5 97.5z" />
<glyph unicode="&#xdf;" horiz-adv-x="1105" d="M115 815v184h69q0 33 2 83.5t13.5 107.5t34 115.5t64.5 104.5t104.5 76t154.5 30q109 0 193 -35q37 -14 70.5 -38t61 -59.5t43 -85t15.5 -114.5q0 -76 -16.5 -128t-36.5 -87q-22 -39 -53 -66q37 -29 72.5 -66.5t64 -89t47 -117t18.5 -147.5q0 -72 -26.5 -156.5 t-85 -157.5t-148.5 -121t-219 -48v203q14 0 57 6t91 31q129 66 129 243q0 178 -144 269q-47 31 -84 45t-45 14v188q59 0 96 19.5t57.5 47.5t27 56.5t3.5 46.5q-4 47 -20 75t-41 42t-52.5 19.5t-51.5 7.5q-43 -4 -78 -14.5t-59.5 -44t-39 -100.5t-16.5 -181v-973h-203v815 h-69z" />
<glyph unicode="&#xe0;" d="M70 487q0 106 37.5 200.5t102 165.5t153 111t186.5 40q39 0 81 -7.5t80 -20.5t70.5 -34.5t53.5 -48.5v92h202v-985h-184l-18 70q-59 -49 -133 -76t-152 -27q-98 0 -186.5 41t-153 111.5t-102 166t-37.5 201.5zM272 487q0 -66 21.5 -123t59.5 -100t88.5 -68.5t107.5 -25.5 t110.5 25.5t92.5 68.5t62.5 100.5t23.5 122.5q0 63 -23.5 121t-62.5 101t-92.5 67.5t-110.5 24.5t-107.5 -24.5t-88.5 -67.5t-59.5 -100.5t-21.5 -121.5zM344 1466l121 109l305 -375l-86 -92z" />
<glyph unicode="&#xe1;" d="M70 487q0 -106 37.5 -201.5t102 -166t153 -111.5t186.5 -41q78 0 151.5 26.5t133.5 76.5l18 -70h184v985h-202v-92q-20 27 -53 48.5t-71 34.5t-80 20.5t-81 7.5q-98 0 -186.5 -40t-153 -111t-102 -165t-37.5 -201zM272 487q0 63 21.5 121t59.5 101t88.5 67.5t107.5 24.5 t110.5 -24.5t92.5 -67.5t62.5 -100.5t23.5 -121.5q0 -66 -23.5 -123t-62.5 -100t-92.5 -68.5t-110.5 -25.5t-107.5 25.5t-88.5 68.5t-59.5 100.5t-21.5 122.5zM393 1200l305 375l121 -109l-340 -358z" />
<glyph unicode="&#xe2;" d="M70 487q0 106 37.5 200.5t102 165.5t153 111t186.5 40q39 0 81 -7.5t80 -20.5t70.5 -34.5t53.5 -48.5v92h202v-985h-184l-18 70q-59 -49 -133 -76t-152 -27q-98 0 -186.5 41t-153 111.5t-102 166t-37.5 201.5zM143 1239l418 317l420 -317l-92 -129l-328 254l-325 -254z M272 487q0 -66 21.5 -123t59.5 -100t88.5 -68.5t107.5 -25.5t110.5 25.5t92.5 68.5t62.5 100.5t23.5 122.5q0 63 -23.5 121t-62.5 101t-92.5 67.5t-110.5 24.5t-107.5 -24.5t-88.5 -67.5t-59.5 -100.5t-21.5 -121.5z" />
<glyph unicode="&#xe3;" d="M70 487q0 -106 37.5 -201.5t102 -166t153 -111.5t186.5 -41q78 0 151.5 26.5t133.5 76.5l18 -70h184v985h-202v-92q-20 27 -53 48.5t-71 34.5t-80 20.5t-81 7.5q-98 0 -186.5 -40t-153 -111t-102 -165t-37.5 -201zM162 1268q2 2 14 23.5t36 49t57.5 54t80.5 43.5 q41 14 110.5 10t162.5 -57q20 -14 47.5 -23.5t56.5 0.5q12 4 21.5 11t17.5 18q8 10 16 22l185 -78q-2 -6 -12.5 -26.5t-32 -46t-55 -52t-79.5 -40.5q-34 -15 -83 -15q-39 0 -86.5 12.5t-102.5 43.5q-63 41 -106 26q-25 -10 -42.5 -32.5t-21.5 -26.5zM272 487q0 63 21.5 121 t59.5 101t88.5 67.5t107.5 24.5t110.5 -24.5t92.5 -67.5t62.5 -100.5t23.5 -121.5q0 -66 -23.5 -123t-62.5 -100t-92.5 -68.5t-110.5 -25.5t-107.5 25.5t-88.5 68.5t-59.5 100.5t-21.5 122.5zM346 1184h4h-4z" />
<glyph unicode="&#xe4;" horiz-adv-x="1198" d="M115 487q0 106 37.5 200.5t102 165.5t153 111t186.5 40q39 0 81 -7.5t80 -20.5t70.5 -34.5t53.5 -48.5v92h202v-985h-184l-18 70q-59 -49 -133 -76t-152 -27q-98 0 -186.5 41t-153 111.5t-102 166t-37.5 201.5zM262 1294q0 55 42 97.5t97 42.5q59 0 98.5 -42t39.5 -98 q0 -55 -39.5 -96t-98.5 -41q-55 0 -97 41t-42 96zM317 487q0 -66 21.5 -123t59.5 -100t88.5 -68.5t107.5 -25.5t110.5 25.5t92.5 68.5t62.5 100.5t23.5 122.5q0 63 -23.5 121t-62.5 101t-92.5 67.5t-110.5 24.5t-107.5 -24.5t-88.5 -67.5t-59.5 -100.5t-21.5 -121.5z M653 1294q0 55 42 97.5t98 42.5q59 0 98 -42t39 -98q0 -55 -39 -96t-98 -41q-55 0 -97.5 41t-42.5 96z" />
<glyph unicode="&#xe5;" d="M70 487q0 -106 37.5 -201.5t102 -166t153 -111.5t186.5 -41q78 0 151.5 26.5t133.5 76.5l18 -70h184v985h-202v-92q-20 27 -53 48.5t-71 34.5t-80 20.5t-81 7.5q-98 0 -186.5 -40t-153 -111t-102 -165t-37.5 -201zM248 1452q0 61 24.5 116.5t65.5 97.5t97.5 65.5 t117.5 23.5t115.5 -23.5t95.5 -65.5t64.5 -97.5t23.5 -116.5t-23.5 -115.5t-64.5 -95.5t-95.5 -65.5t-115.5 -24.5t-117.5 24.5t-97.5 65.5t-65.5 95.5t-24.5 115.5zM272 487q0 63 21.5 121t59.5 101t88.5 67.5t107.5 24.5t110.5 -24.5t92.5 -67.5t62.5 -100.5t23.5 -121.5 q0 -66 -23.5 -123t-62.5 -100t-92.5 -68.5t-110.5 -25.5t-107.5 25.5t-88.5 68.5t-59.5 100.5t-21.5 122.5zM424 1452q0 -49 38 -87t91 -38t89 38t36 87q0 51 -36 90t-89 39t-91 -39t-38 -90z" />
<glyph unicode="&#xe8;" horiz-adv-x="1091" d="M70 494q0 106 37.5 200t103 164t154 111t188.5 41q92 0 176 -37t148.5 -101.5t105.5 -150.5t49 -186v-158h-741q31 -90 100.5 -146.5t161.5 -56.5q41 0 79 16.5t73 38.5l161 -129q-66 -59 -144.5 -94t-168.5 -35q-100 0 -188.5 41t-154 113t-103 166t-37.5 203zM276 535 h553q-8 57 -33.5 107t-62.5 87t-83 57.5t-97 20.5q-53 0 -100 -20.5t-84 -57.5t-61.5 -87t-31.5 -107zM344 1466l121 109l305 -375l-86 -92z" />
<glyph unicode="&#xe9;" horiz-adv-x="1091" d="M70 494q0 -109 37.5 -203t103 -166t154 -113t188.5 -41q90 0 169 35t144 94l-161 129q-35 -23 -73 -39t-79 -16q-92 0 -161.5 56.5t-100.5 146.5h741v158q-8 100 -49 186t-105.5 150.5t-148.5 101.5t-176 37q-100 0 -188.5 -41t-154 -111t-103 -164t-37.5 -200zM276 535 q6 57 31 107t62 87t84 57.5t100 20.5q51 0 97 -20.5t83 -57.5t62.5 -87t33.5 -107h-553zM393 1200l305 375l121 -109l-340 -358z" />
<glyph unicode="&#xec;" horiz-adv-x="1146" />
<glyph unicode="&#xf1;" horiz-adv-x="1110" d="M115 0h202v483q0 147 72 232.5t201 85.5q57 0 102 -24.5t74 -67.5t44 -101.5t15 -124.5v-483h203v512q0 100 -25.5 190.5t-80 157t-137.5 105.5t-195 39q-70 0 -138.5 -30t-134.5 -85v96h-202v-985zM162 1268q2 2 14 23.5t36 49t57.5 54t80.5 43.5q41 14 110.5 10 t162.5 -57q20 -14 47.5 -23.5t56.5 0.5q12 4 21.5 11t17.5 18q8 10 16 22l185 -78q-2 -6 -12.5 -26.5t-32 -46t-55 -52t-79.5 -40.5q-34 -15 -83 -15q-39 0 -86.5 12.5t-102.5 43.5q-63 41 -106 26q-25 -10 -42.5 -32.5t-21.5 -26.5z" />
<glyph unicode="&#xf2;" horiz-adv-x="1101" d="M70 487q0 106 37.5 201.5t103 167.5t154 113t188.5 41q98 0 185 -41t152.5 -113t103.5 -167t38 -202q0 -106 -38 -200t-103.5 -164t-152.5 -111t-185 -41q-100 0 -188.5 41t-154 111t-103 164t-37.5 200zM272 487q0 -66 21.5 -123t59.5 -99t89.5 -66.5t110.5 -24.5 q57 0 107.5 24.5t88 66.5t59 99.5t21.5 122.5q0 66 -21.5 124.5t-59 101.5t-88 68.5t-107.5 25.5q-59 0 -110.5 -25.5t-89.5 -68.5t-59.5 -101.5t-21.5 -124.5zM340 1466l121 109l305 -375l-86 -92z" />
<glyph unicode="&#xf3;" horiz-adv-x="1101" d="M70 487q0 106 37.5 201.5t103 167.5t154 113t188.5 41q98 0 185 -41t152.5 -113t103.5 -167t38 -202q0 -106 -38 -200t-103.5 -164t-152.5 -111t-185 -41q-100 0 -188.5 41t-154 111t-103 164t-37.5 200zM272 487q0 -66 21.5 -123t59.5 -99t89.5 -66.5t110.5 -24.5 q57 0 107.5 24.5t88 66.5t59 99.5t21.5 122.5q0 66 -21.5 124.5t-59 101.5t-88 68.5t-107.5 25.5q-59 0 -110.5 -25.5t-89.5 -68.5t-59.5 -101.5t-21.5 -124.5zM393 1200l305 375l121 -109l-340 -358z" />
<glyph unicode="&#xf5;" horiz-adv-x="1101" d="M70 487q0 106 37.5 201.5t103 167.5t154 113t188.5 41q98 0 185 -41t152.5 -113t103.5 -167t38 -202q0 -106 -38 -200t-103.5 -164t-152.5 -111t-185 -41q-100 0 -188.5 41t-154 111t-103 164t-37.5 200zM162 1268q2 2 14 23.5t36 49t57.5 54t80.5 43.5q41 14 110.5 10 t162.5 -57q20 -14 47.5 -23.5t56.5 0.5q12 4 21.5 11t17.5 18q8 10 16 22l185 -78q-2 -6 -12.5 -26.5t-32 -46t-55 -52t-79.5 -40.5q-34 -15 -83 -15q-39 0 -86.5 12.5t-102.5 43.5q-63 41 -106 26q-25 -10 -42.5 -32.5t-21.5 -26.5zM272 487q0 -66 21.5 -123t59.5 -99 t89.5 -66.5t110.5 -24.5q57 0 107.5 24.5t88 66.5t59 99.5t21.5 122.5q0 66 -21.5 124.5t-59 101.5t-88 68.5t-107.5 25.5q-59 0 -110.5 -25.5t-89.5 -68.5t-59.5 -101.5t-21.5 -124.5z" />
<glyph unicode="&#xf6;" horiz-adv-x="1193" d="M115 487q0 106 37.5 201.5t103.5 167.5t154 113t188 41q98 0 185 -41t152.5 -113t103.5 -167t38 -202q0 -106 -38 -200t-103.5 -164t-152.5 -111t-185 -41q-100 0 -188 41t-154 111t-103.5 164t-37.5 200zM262 1294q0 55 42 97.5t97 42.5q59 0 98.5 -42t39.5 -98 q0 -55 -39.5 -96t-98.5 -41q-55 0 -97 41t-42 96zM317 487q0 -66 21.5 -123t59.5 -99t89.5 -66.5t110.5 -24.5q57 0 107.5 24.5t88 66.5t59 99.5t21.5 122.5q0 66 -21.5 124.5t-59 101.5t-88 68.5t-107.5 25.5q-59 0 -110.5 -25.5t-89.5 -68.5t-59.5 -101.5t-21.5 -124.5z M653 1294q0 55 42 97.5t98 42.5q59 0 98 -42t39 -98q0 -55 -39 -96t-98 -41q-55 0 -97.5 41t-42.5 96z" />
<glyph unicode="&#xfc;" horiz-adv-x="1110" d="M82 475v510h203v-483q0 -66 15 -123t44 -100t73 -69t103 -26q129 0 201 86t72 232v483h202v-985h-184l-18 96q-66 -55 -134.5 -84.5t-138.5 -29.5q-113 0 -194.5 38.5t-136 105.5t-81 157t-26.5 192zM221 1294q0 55 41 97.5t96 42.5q59 0 99.5 -42t40.5 -98 q0 -55 -40.5 -96t-99.5 -41q-55 0 -96 41t-41 96zM612 1294q0 55 42 97.5t98 42.5q59 0 98 -42t39 -98q0 -55 -39 -96t-98 -41q-55 0 -97.5 41t-42.5 96z" />
<glyph unicode="&#x2000;" horiz-adv-x="1048" />
<glyph unicode="&#x2001;" horiz-adv-x="2097" />
<glyph unicode="&#x2002;" horiz-adv-x="1048" />
<glyph unicode="&#x2003;" horiz-adv-x="2097" />
<glyph unicode="&#x2004;" horiz-adv-x="699" />
<glyph unicode="&#x2005;" horiz-adv-x="524" />
<glyph unicode="&#x2006;" horiz-adv-x="349" />
<glyph unicode="&#x2007;" horiz-adv-x="349" />
<glyph unicode="&#x2008;" horiz-adv-x="262" />
<glyph unicode="&#x2009;" horiz-adv-x="419" />
<glyph unicode="&#x200a;" horiz-adv-x="116" />
<glyph unicode="&#x2010;" horiz-adv-x="1114" d="M207 420v203h700v-203h-700zM207 420v203h700v-203h-700z" />
<glyph unicode="&#x2011;" horiz-adv-x="1114" d="M207 420v203h700v-203h-700zM207 420v203h700v-203h-700z" />
<glyph unicode="&#x2012;" horiz-adv-x="1114" d="M207 420v203h700v-203h-700zM207 420v203h700v-203h-700z" />
<glyph unicode="&#x2013;" horiz-adv-x="1685" d="M207 420v203h1272v-203h-1272z" />
<glyph unicode="&#x2014;" horiz-adv-x="2949" d="M207 420v203h2535v-203h-2535z" />
<glyph unicode="&#x2018;" horiz-adv-x="628" d="M106 1880l193 55l147 -585l-147 -56z" />
<glyph unicode="&#x2019;" horiz-adv-x="532" d="M98 1350l152 585l192 -55l-192 -586z" />
<glyph unicode="&#x201c;" horiz-adv-x="980" d="M115 1880l194 55l148 -585l-148 -56zM479 1880l193 55l147 -585l-147 -56z" />
<glyph unicode="&#x201d;" horiz-adv-x="985" d="M162 1350l151 585l193 -55l-193 -586zM530 1350l148 585l192 -55l-192 -586z" />
<glyph unicode="&#x201e;" horiz-adv-x="940" d="M115 -276l147 585l199 -55l-199 -586zM479 -276l152 585l194 -55l-198 -586z" />
<glyph unicode="&#x2026;" horiz-adv-x="1409" d="M115 111q0 47 35.5 82.5t85.5 35.5q47 0 82.5 -35.5t35.5 -82.5q0 -53 -35.5 -87t-82.5 -34q-49 0 -85 34t-36 87zM586 111q0 47 35.5 82.5t83.5 35.5q49 0 84.5 -35.5t35.5 -82.5q0 -53 -35.5 -87t-84.5 -34q-47 0 -83 34t-36 87zM1055 111q0 47 35.5 82.5t85.5 35.5 q47 0 82.5 -35.5t35.5 -82.5q0 -53 -35.5 -87t-82.5 -34q-49 0 -85 34t-36 87z" />
<glyph unicode="&#x202f;" horiz-adv-x="419" />
<glyph unicode="&#x205f;" horiz-adv-x="524" />
<glyph unicode="&#x20ac;" horiz-adv-x="1851" d="M162 682l78 115h188v40.5t4 61.5h-270l78 115h206q25 111 76 210t123 185q111 125 256.5 191.5t304.5 66.5q291 0 504 -197l-166 -135q-74 55 -159 88t-179 33t-180 -32.5t-156.5 -91t-123 -140.5t-78.5 -178h534l-78 -115h-479q-4 -25 -4 -59.5v-42.5h561l-78 -115h-471 q23 -104 75 -195.5t125 -157t163 -103.5t190 -38q104 0 198.5 39t166.5 109l166 -133q-109 -111 -243 -168.5t-288 -57.5q-160 0 -305 67t-256 192q-80 92 -133 206.5t-70 239.5h-280z" />
<glyph unicode="&#x25fc;" horiz-adv-x="983" d="M0 0v983h983v-983h-983z" />
<glyph unicode="&#xfb01;" horiz-adv-x="1275" d="M291 801v184h110q0 106 37 196.5t101.5 154t152.5 99t189 35.5v-213q-57 0 -108.5 -17t-90.5 -52t-61.5 -86t-22.5 -117h485v-985h-202v801h-283v-801h-203v801h-104z" />
<glyph unicode="&#xfb02;" horiz-adv-x="1243" d="M207 801v184h106q0 154 75 268.5t192 169.5q31 16 71 27q35 10 84 17.5t113 2.5q59 -4 100 -11t64 -17q27 -10 43 -23v-1216h69v-203h-272v1253q-55 10 -118.5 -1t-117.5 -50q-14 -10 -26 -21.5t-23 -29.5q-25 -35 -38 -80t-13 -86h125v-184h-125v-801h-203v801h-106z " />
</font>
</defs>
</svg>
