<?xml version="1.0" encoding="utf-8"?>
<!-- Generator: Adobe Illustrator 19.2.1, SVG Export Plug-In . SVG Version: 6.00 Build 0)  -->
<svg version="1.1" id="Layer_1" xmlns="http://www.w3.org/2000/svg" xmlns:xlink="http://www.w3.org/1999/xlink" x="0px" y="0px"
	 viewBox="0 0 138.8 138.8" style="enable-background:new 0 0 138.8 138.8;" xml:space="preserve">
<style type="text/css">
	.st0{fill:#9FCCEB;}
	.st1{fill:#CC0000;}
</style>
<title>chi_flag_fun</title>
<path class="st0" d="M45,85.4c9.8,7.8,20,16,23.1,28.8c0.4,1.6,0.7,3.3,0.8,5l48-31.8c-0.1-2.1-0.3-4.2-0.8-6.3
	c-2.8-11.8-12.2-19.3-22-27.2S74,38,71,25.2c-0.4-1.6-0.7-3.3-0.8-5L22.2,52c0.1,2.1,0.3,4.2,0.8,6.2C25.8,70.1,35.2,77.5,45,85.4z
	 M67.8,26.2l0.5,2.1c2.8,11.8,12.2,19.3,22,27.2s20,16,23.1,28.8l0.2,1l-8.2,5.4l-0.5-2.1c-2.8-11.8-12.2-19.3-22-27.2
	s-20-16-23.1-28.8l-0.2-1L67.8,26.2z M56.9,33.4l0.5,2.1c2.8,11.9,12.1,19.3,22,27.2s20,16,23.1,28.8l0.2,1L82,106.2l-0.5-2.1
	c-2.8-11.8-12.2-19.3-22-27.2s-20-16-23.1-28.8l-0.2-1L56.9,33.4z M33.5,48.9L34,51c2.8,11.8,12.2,19.3,22,27.2s20,16,23.1,28.8
	l0.2,1l-8.1,5.3l-0.5-2.1c-2.8-11.8-12.2-19.3-22-27.2s-20-16-23.1-28.8l-0.2-1L33.5,48.9z"/>
<path class="st1" d="M80.8,72l-2.5,2.8c1.3,0.6,2.6,1.3,3.8,2l-4.5-0.4c-0.1,1.2-0.1,2.3-0.2,3.5c-0.6-1.1-1.3-2.1-2-3.2l-4,1.5
	l2.5-2.8c-1.3-0.6-2.6-1.3-4-1.9l4.6,0.3c0-1.1,0-2.3,0.1-3.4c0.7,1,1.4,2.1,2.1,3.1L80.8,72z"/>
<path class="st1" d="M67.6,61.3l-2.5,2.8c1.3,0.6,2.6,1.3,4,1.9l-4.6-0.3c0,1.1,0,2.3-0.1,3.4c-0.7-1-1.4-2.1-2.1-3.1l-4,1.5
	l2.5-2.8c-1.3-0.6-2.6-1.3-3.8-2l4.5,0.4c0.1-1.2,0.1-2.3,0.2-3.5c0.6,1.1,1.3,2.1,2,3.2L67.6,61.3z"/>
<path class="st1" d="M92.5,83.8l-2.7,2.9c1,0.8,2,1.7,3,2.5c-1.3-0.3-2.5-0.6-3.8-0.8c-0.3,1.3-0.5,2.6-0.9,3.9
	c-0.3-1.3-0.7-2.5-1.1-3.8L83.1,90l2.7-2.9c-1.1-0.8-2.2-1.5-3.4-2.3c1.4,0.2,2.8,0.4,4.2,0.6c0.2-1.2,0.4-2.5,0.5-3.7
	c0.5,1.1,1,2.3,1.5,3.5L92.5,83.8z"/>
<path class="st1" d="M55.9,49.6l-2.7,2.9c1.1,0.8,2.2,1.5,3.4,2.3c-1.4-0.2-2.8-0.4-4.2-0.6c-0.2,1.2-0.4,2.5-0.5,3.7
	c-0.5-1.1-1-2.3-1.5-3.5l-3.8,1.4l2.7-2.9c-1-0.8-2-1.7-2.9-2.6c1.3,0.3,2.5,0.6,3.9,0.8c0.3-1.3,0.5-2.6,0.9-3.9
	c0.3,1.3,0.7,2.5,1.1,3.7L55.9,49.6z"/>
<rect x="67.8" class="st0" width="4" height="9.9"/>
<rect x="110.5" y="22.4" transform="matrix(0.7071 -0.7071 0.7071 0.7071 16.5804 88.7634)" class="st0" width="9.8" height="4"/>
<rect x="113.4" y="109.6" transform="matrix(0.7071 -0.7071 0.7071 0.7071 -47.1655 115.1642)" class="st0" width="4" height="9.8"/>
<rect x="67.8" y="128.9" class="st0" width="4" height="9.9"/>
<rect x="18.8" y="112.5" transform="matrix(0.7071 -0.7071 0.7071 0.7071 -74.0205 50.3397)" class="st0" width="9.9" height="4"/>
<rect x="21.8" y="18.5" transform="matrix(0.7071 -0.7071 0.7071 0.7071 -9.5774 23.6477)" class="st0" width="4" height="9.9"/>
<rect x="129" y="67.4" transform="matrix(1 -1.221729e-03 1.221729e-03 1 -8.470818e-02 0.1636)" class="st0" width="9.9" height="4"/>
<rect x="0" y="67.4" transform="matrix(1 -1.221729e-03 1.221729e-03 1 -8.481362e-02 6.074708e-03)" class="st0" width="9.9" height="4"/>
</svg>
