<?xml version="1.0" encoding="utf-8"?>
<!-- Generator: Adobe Illustrator 16.0.0, SVG Export Plug-In . SVG Version: 6.00 Build 0)  -->
<!DOCTYPE svg PUBLIC "-//W3C//DTD SVG 1.1//EN" "http://www.w3.org/Graphics/SVG/1.1/DTD/svg11.dtd">
<svg version="1.1" id="Layer_1" xmlns="http://www.w3.org/2000/svg" xmlns:xlink="http://www.w3.org/1999/xlink" x="0px" y="0px"
	 width="612px" height="792px" viewBox="0 0 612 792" enable-background="new 0 0 612 792" xml:space="preserve">
<g>
	<g>
		<g>
			<path fill="#585858" d="M300.3,182.6c4.9,0,9.601,0,14.5,0c89.5,5.2,155.9,38.7,203.7,86.6c48.1,48,83.1,112,90.3,200.2
				c0,9.1,0,18.3,0,27.399c-5.7,92.601-41,156-90.6,205.8C493.9,726.9,463.8,746.9,429.6,762.2c-34.5,15.5-74.5,25.2-121.199,26.6
				c-47.4,1.5-90.2-10.8-123.2-25c-35.1-15-63.3-35.899-88.6-59.1c-25.9-23.9-46.3-52.601-62.8-85.4C17.1,586,7.3,546.7,3.1,501.9
				c0-9.101,0-18.301,0-27.4c0.3-0.1,0.4-0.3,0.4-0.8c4.5-92,41.2-155.6,89.8-204.1C142,221,208.5,187.2,300.3,182.6z M258.5,199.5
				c-72.1,12.2-125.7,45.3-165.1,88.6c-23.6,25.9-42,52.8-56.4,88.7C23.4,410.4,13.5,452.2,16,500c4.8,90.2,42.4,150.6,91.9,198.1
				c24.2,23.2,53.7,42.601,88.2,56.801c34.7,14.3,77.9,22.8,124,20.6c45.2-2.1,82.801-13.6,115.2-29.8
				c32.7-16.5,59.101-36.8,82.9-62.101C541.3,659,561,629.9,575,595.4c14-34.801,23.2-74.9,21-123.2
				c-4.3-90.3-43.1-152.1-91.4-198.5c-24-23.2-53.8-42.8-88.199-56.8c-34.5-14.1-77.5-23.2-124.4-21
				C281,196.4,269.6,197.6,258.5,199.5z"/>
		</g>
		<g>
			<path fill="#585858" d="M351.4,211.1c-0.4,3.9-3.801,6.4-6,9.2c-15.4,19.3-29.101,41.1-39.4,66c-2.7-2.4-3.2-6.7-4.9-10.5
				c-8.9-20.8-22.2-39.4-35.4-56.3c-2.1-2.8-4.3-5.7-6-8.8C286.7,206.1,325.2,205.2,351.4,211.1z"/>
		</g>
		<g>
			<path fill="#585858" d="M366.8,213.6c33.601,7.8,63.2,19.4,87.4,36.6c-2.7,15.1-11.3,24-21,32.2c-45.7,3.2-82.5,14.4-112.7,33.4
				c-4.3,2.7-7.8,6-12.4,8.1C317.5,277.1,339.1,242.3,366.8,213.6z"/>
		</g>
		<g>
			<path fill="#585858" d="M297.5,319.1c-15.5-8.8-30.9-16.6-49.1-22.9c-8.8-3.1-17.9-5.7-27.8-8.1c-9.6-2.2-20-4.6-30.6-5.2
				c-3.5-0.3-7.8,0.7-11.3-0.4c-5.3-1.7-9.4-8.7-12.9-13.7c-3.2-4.6-9.4-12-8.1-18.2c0.6-2.7,5.5-5.2,8.4-6.9
				c19.9-10.8,40.8-19.6,64.9-26.6c3.9-1.1,9.1-3.1,12-3.2c4.3-0.1,7.3,4.5,10.1,8.1c13.8,17.3,25.6,33.6,35.4,54.8
				c3.9,8.4,8.5,17.6,10.1,25.7C299.7,308,299,315.7,297.5,319.1z"/>
		</g>
		<g>
			<path fill="#585858" d="M160.6,282c-34.4,4.5-54,23.6-58,58.4c-4.2-2.2-7.7-5.3-11.7-7.7c-4.1-2.4-8.2-4.6-13.7-5.6
				c3.9-7.4,9.4-13.6,14.5-19.7c10.2-12.3,21.3-24.2,33.8-34.7c6.6-5.5,13.6-10.5,20.6-15.7c0.3,0,0.6,0,0.8,0
				c1.8,4.8,3.6,9.2,6,13.3C155.3,274.5,158.6,277.8,160.6,282z"/>
		</g>
		<g>
			<path fill="#585858" d="M464.3,257.1c14.8,8.4,27,19.7,38.601,31.5c8.8,8.8,16.6,18,24.6,28.2c2.5,3.2,5.7,6,7.3,10.1
				c-10.3,2.5-16.899,8.8-25.3,13.3c-4.2-34.4-23.8-53.6-57.6-58.4c0.6-3.8,3.8-6.2,5.6-8.8C460.4,268.4,462.7,263.7,464.3,257.1z"
				/>
		</g>
		<g>
			<path fill="#585858" d="M151.4,470.9c-2.4,0-3.1-2.5-4.1-4.101c-14.7-24.3-26.3-53.6-31-88.5c-2.7-19.9-4.2-42.2,2.4-56.8
				c7.1-15.8,23.5-28.9,48.4-27c21.3,1.7,37.8,17.1,42.2,38.3c1.4,6.4,2.7,13.8,0.8,19.7c-1.4,4.5-6.2,8.2-9.6,12.4
				c-3.6,4.3-6.6,9.2-9.2,12.9C172.5,404.2,158.2,433.4,151.4,470.9z"/>
		</g>
		<g>
			<path fill="#585858" d="M460.2,470.5c-8-43.8-24.9-76.1-48.7-105.1c-3.2-3.9-8.4-8.2-9.6-12c-2.2-6.7-0.301-16.8,1.3-22.9
				c5-21.1,23.8-37.8,51.2-35.8c27.8,2,43.5,23.4,43.899,52.3c0.7,47.1-13.6,87.2-31.899,116.3c-0.801,1.4-2,2.8-2.801,4.101
				C462.6,468.5,462,470.5,460.2,470.5z"/>
		</g>
		<g>
			<path fill="#585858" d="M298.3,351.4c-1.8,3.6-4.2,7.4-5.6,12c-5.3,16.4-3.8,40.7,5.6,52.7c-3.1,3.801-4.8,8.7-9.2,10.101
				c-2.7,0.8-6.4,0.6-9.6,0.8c-40,3.5-75.8,16.4-103,33c-4.2,2.5-8,5.9-12.4,8.1c8.1-43.8,31.2-81.899,58.4-111.2
				c9.5-10.2,21.5-19.9,37.1-21C278.2,334.6,288.8,342.4,298.3,351.4z"/>
		</g>
		<g>
			<path fill="#585858" d="M448.1,467.7c-5.6-0.8-9.6-4.8-13.699-7.3C407,443.3,374.3,430.5,332,427c-3.1-0.3-6.7,0-9.2-0.8
				c-2.8-1-5.6-4.8-7.7-7.3c-8.199-9.801-15.899-19.9-14.5-39c1.8-24.6,21.4-42.2,43.9-43.9c9.9-0.7,19.6,1.7,26.1,5.2
				c9.9,5.3,19,15.2,27,24.2C421.9,392.5,439,427,448.1,467.7z"/>
		</g>
		<g>
			<path fill="#585858" d="M70.4,337.2c6.2,0.7,12.6,3.5,18.9,8.1c5.3,3.8,12.2,8.1,13.7,12.9c0.8,2.7,0.6,6.4,0.8,9.6
				c3.4,39.8,15.5,75.8,32.2,103c2.5,4.2,6,7.8,8.1,12.4c-41-7.601-71.4-26.3-99-48.7c-3.5-2.8-10.2-6.7-10.9-10.1
				c-0.7-3.2,1.5-8.101,2.8-12.4C45,384.1,56.3,357.4,70.4,337.2z"/>
		</g>
		<g>
			<path fill="#585858" d="M472.7,476.5c0.7-4.3,3.899-7.6,6-11.3c10.2-17.2,18.5-38.5,23.8-61.7c2.1-9.2,4.5-19.2,5.2-28.5
				c0.399-5.5-0.601-11.5,1.3-16.5c1.7-4.6,8.1-9.6,12.4-12.9c5.699-4.2,11.5-6.4,17.3-8.1c4.5-1.3,6.7,4.2,8.8,8.1
				c11.6,20.1,19.6,41.5,27,65.6c1.3,4.2,3.5,9.1,3.2,12c-0.3,3.1-5,7.3-8.4,10.1c-20.8,17.5-42.1,30.8-69.6,41.101
				C491.8,477.5,481.3,482,472.7,476.5z"/>
		</g>
		<g>
			<path fill="#585858" d="M31,439.2c0.3,0.1,1-0.101,1.3,0c22.2,18,45.9,34.8,74.9,45.899c-0.7,2-3.2,2.5-4.9,3.2
				c-23.4,9.9-43.3,22.8-62.4,37.5c-2.9,2.2-5.5,5-8.8,6.4C26.2,503.9,26.2,467.4,31,439.2z"/>
		</g>
		<g>
			<path fill="#585858" d="M579.4,439.2c0.3,0,0.6,0,0.8,0c6.399,26.8,5,64.7,0.8,93c-3.5-1.5-6-4.2-8.8-6.4
				c-19.7-15.2-41.4-29.6-67.3-39.399c0.399-2.4,3.399-2.2,4.899-2.801c21.5-9.1,43.101-22.199,60.4-36.199
				c3.2-2.7,6.2-5.301,8.8-8.101C579.1,439.2,579.2,439.2,579.4,439.2z"/>
		</g>
		<g>
			<path fill="#585858" d="M266.2,439.9c-1.3,3.6-4.6,5.5-6.9,8.399c-7.6,9.9-14.3,24.601-12.9,43.5c0.8,12.3,6.4,22.4,12,30.2
				c2.1,2.8,4.6,4.9,6,8.1c-41.8-6.699-75.6-21.3-101.1-44.3c0.3-2.5,2.8-3.5,4.5-4.899c24.7-21,58-34.4,97.5-41.101
				C265.6,439.9,265.9,439.9,266.2,439.9z"/>
		</g>
		<g>
			<g>
				<path fill="#585858" d="M300.3,440.7c17.3-1.4,31.7,6.2,39.4,15.7c4.5,5.6,10.1,16.199,10.899,27.399
					c0.801,13-3.399,23.601-8.399,30.601c-14.4,19.699-49.6,26-70.5,5.6c-6.6-6.4-12.9-17.9-13.7-29.4
					c-1.5-19.699,6.9-33.3,18.5-41.899C282.8,444.2,289.8,441.5,300.3,440.7z M286.3,457.2c-4.5,2.8-9.5,8-12,13.3
					c-12.6,25.7,7.4,52.3,34.3,49.5c21.301-2.2,38.601-26.7,26.601-49.5c-4.9-9.4-17.2-18.9-31.5-18.2
					C297.1,452.7,290.2,454.8,286.3,457.2z"/>
			</g>
		</g>
		<g>
			<path fill="#585858" d="M467.5,488.2c23.4,4.1,44.9,12,62.8,22.1c17.9,10.101,33.8,22.7,47.5,36.601
				c-7.6,33.6-19.7,62.399-36.2,87c-9.6-1.5-18.6-6.601-25.3-12.4c-2.899-2.5-6.399-6.2-7.3-8.8c-0.8-2.8-0.6-6.4-0.8-9.601
				c-3.9-46-18.9-84.3-40.3-113.5C467.4,489.4,467.5,488.7,467.5,488.2z"/>
		</g>
		<g>
			<path fill="#585858" d="M139.2,494.7c-1,5-4.6,8.5-6.9,12.399c-11,19.7-20.1,44.7-25.3,71.301c-1,5.199-1.8,11-2.4,16.899
				c-0.6,5.7,0.1,12.601-1.7,17.3c-1.8,5-8.4,9.801-13.3,13.301c-5.7,4.1-12.2,6.699-18.5,8.1c-3.4-2.2-4.5-6-6.4-9.2
				c-11.6-19.2-19.7-40-27.4-64.899c-1.3-4.2-3.5-8.9-3.2-12c0.6-5.9,14.1-14.801,18.5-18.2c21.3-15.8,45.9-28.4,72.1-37.5
				C129.5,490.6,135,493.1,139.2,494.7z"/>
		</g>
		<g>
			<path fill="#585858" d="M460.2,500.7c0-0.601,0-1.101,0.399-1.3c0.301,0,0.601,0,0.801,0c16.8,26.1,29.6,56.1,34.699,93.8
				c2.5,19.3,4.101,42.899-2.8,57.2C486.9,664,473.7,675.1,455.4,676.5c-26.601,2.1-44.601-12.7-51.2-31.5
				c-2.101-6-4.9-18.3-2.4-26.6c1.4-4.601,6.2-8.2,9.601-12.4c9.899-11.7,18.899-26,26.1-39.8C448.3,546,455.6,527,460.2,500.7z"/>
		</g>
		<g>
			<path fill="#585858" d="M150.1,500.7c-0.1-0.3,0.1-0.4,0.4-0.4s0.6,0,0.8,0c7.6,37.9,20.4,66.4,39.8,93.4
				c2.7,3.8,6,8.2,9.6,12.399c3.4,3.801,8.5,8.4,9.6,12.4c2.5,9.2-1.7,23.1-4.5,29.4C200.1,661,191.4,669.6,178,674
				c-3.6,1.3-7.1,2.1-10.9,2.4c-23.4,1.8-36.6-8-45.2-21.4c-8.9-14.3-9.9-33.3-7.3-56.3C119.5,560.4,133.3,525.9,150.1,500.7z"/>
		</g>
		<g>
			<path fill="#585858" d="M163.8,503.5c0-0.4,0-0.8,0-1.3c0.3,0.1,0.6-0.101,0.8,0c4.5,2.5,8.7,5.5,12.9,8.1
				c24.7,15.5,55.6,28.5,92.6,32.2c6,0.6,12.7,0.3,18.2,2.4c4.3,1.699,7,5.6,9.6,8.8c6.4,7.8,12.3,15.7,13.3,28.899
				c1.399,17.9-5.9,31.5-17.3,40.7c-10.6,8.7-27,15.2-44.7,10.101c-15.5-4.601-26-17.601-35.8-29.801
				C190.6,575.8,171.9,545.9,163.8,503.5z"/>
		</g>
		<g>
			<path fill="#585858" d="M447.4,502.4c1.399,0.699,0.399,4.1,0,6c-6,28.699-18.7,54.399-33.4,75.6c-7.6,10.9-16.2,22-26.1,32.2
				c-9.601,10.1-22,18.899-39,18.899c-16.4,0-26.7-6.899-35.101-15.699c11.2-14.301,12.2-50.101,0-64c1-2.2,2.7-4.301,4.101-6
				c1.399-1.801,3.1-4.101,5.199-4.9c5.301-2.1,11-0.8,16.9-1.3c10.1-0.7,21-3.101,31-5.601c18.9-4.899,36.8-12,52.3-20.6
				c8.4-4.6,16.601-9.1,23.8-15C447.1,502.4,447.2,502.4,447.4,502.4z"/>
		</g>
		<g>
			<path fill="#585858" d="M221.8,630.7c0.4,0,0.8,0,1.3,0c8,8.5,22.9,14.8,39,15.7c10.6,0.6,22.9-3.801,32.3-8.2
				c-2.5,3.8-8.4,7.3-11.5,9.1c-22.1,13.3-49.5,22.9-80.8,27.4c4.9-5.5,5.3-6.2,7.6-9.101c6.6-8.699,10.9-19.199,12.2-33.6
				C221.8,631.6,221.8,631.1,221.8,630.7z"/>
		</g>
		<g>
			<path fill="#585858" d="M509.3,630.7c0.101,0,0.3,0,0.4,0c8.1,4.5,14.1,11.5,25,13.3c-3.9,7.6-9.601,13.8-15,20.1
				c-10.8,12.7-22,24.2-35.101,35.101c-6.3,5.3-12.6,11-20.1,15c-2.4-10.601-8.7-17.101-13.3-25.3
				C485.7,684.4,505.5,665.5,509.3,630.7z"/>
		</g>
		<g>
			<path fill="#585858" d="M101.4,631.1c1.5,1.5,1.7,3.9,2,5.601c6.6,29.399,23.8,48.7,57.2,52c-2,4.3-5.3,7.7-7.7,11.7
				c-2.4,4.1-4.3,8.399-5.6,13.699c-7.6-3.8-13.8-9.6-20.1-15c-12.9-10.6-24-22.1-35.1-35.1c-5.3-6.2-10.9-12.4-15-19.7
				C86.8,641.5,94.4,636.7,101.4,631.1z"/>
		</g>
		<g>
			<path fill="#585858" d="M157.4,721.1c2.9-15,11.5-24.5,21.4-32.6c51.6-3.2,91.9-18,123.6-41.1c0.3,0,0.6,0,0.8,0
				c-7.1,41.5-25.6,72.3-48.7,99.399c-2.8,3.2-7.1,10.3-10.1,10.9c-2,0.3-9.9-2.5-12.4-3.2C203.8,746.6,178.3,735.3,157.4,721.1z"/>
		</g>
		<g>
			<path fill="#585858" d="M454.5,720.2c-5.2,5.5-12.3,8.399-18.9,12c-18,9.8-37.8,17.6-61.199,23.8c-2.2,0.6-5.301,1.7-6,1.7
				c-2.4-0.3-6.601-5.7-9.601-9.2C341,728.1,327.2,706,316.6,678c-2-4.9-4.3-9.8-4.5-14.1c-0.1-4.601,2.4-7.7,2.4-12
				c7.7,3.899,15.7,8.899,23.8,12.899C354.4,672.5,372.4,678.5,391.9,683c9.5,2.1,20,4.5,30.6,5.2c3.1,0.3,6.9-0.4,10.1,0.399
				c6,1.5,14.4,12.301,17.301,18.2C452,710.8,452.7,716,454.5,720.2z"/>
		</g>
		<g>
			<path fill="#585858" d="M306,684c0.3,0,0.6,0,0.8,0c9.101,26.7,23.8,47.3,39.4,67.7c2.2,2.8,4.8,5.5,6,8.8c-27.5,5-65.4,4.9-93,0
				c1.7-3.4,4.2-6,6.4-8.8c15.4-19.4,28.9-41.2,39.4-66.4C305.3,684.7,305.6,684.1,306,684z"/>
		</g>
	</g>
	<g>
		<path fill="#585858" d="M390.6,631.1c-0.399,0-0.8,0-1.3,0c-8,8.5-22.899,14.801-39,15.7c-10.6,0.601-22.899-3.8-32.3-8.2
			c2.5,3.801,8.4,7.301,11.5,9.101C351.6,661,379,670.6,410.3,675.1c-4.899-5.5-5.3-6.199-7.6-9.1c-6.601-8.7-10.9-19.2-12.2-33.6
			C390.6,632,390.6,631.6,390.6,631.1z"/>
	</g>
	<g>
		<path fill="#585858" d="M388.8,339.6c-0.399,0-0.8,0-1.3,0c-8-8.5-22.9-14.8-39-15.7c-10.6-0.6-22.9,3.8-32.3,8.2
			c2.5-3.8,8.399-7.3,11.5-9.1c22.1-13.3,49.5-22.9,80.8-27.4c-4.9,5.5-5.3,6.2-7.6,9.1c-6.601,8.7-10.9,19.2-12.2,33.6
			C388.8,338.9,388.8,339.2,388.8,339.6z"/>
	</g>
	<g>
		<path fill="#585858" d="M221.8,339.6c0.4,0,0.8,0,1.3,0c8-8.5,22.9-14.8,39-15.7c10.6-0.6,22.9,3.8,32.3,8.2
			c-2.5-3.8-8.4-7.3-11.5-9.1c-22.1-13.3-49.5-22.9-80.8-27.4c4.9,5.5,5.3,6.2,7.6,9.1c6.6,8.7,10.9,19.2,12.2,33.6
			C221.8,338.9,221.8,339.2,221.8,339.6z"/>
	</g>
	<g>
		<path fill="#585858" d="M343.1,531.7c1.301-3.601,4.601-5.5,6.9-8.4c7.6-9.899,14.3-24.6,12.9-43.5
			c-0.801-12.3-6.4-22.399-12-30.2c-2.101-2.8-4.601-4.899-6-8.1c41.8,6.7,75.6,21.3,101.1,44.3c-0.3,2.5-2.8,3.5-4.5,4.9
			c-24.7,21-58,34.399-97.5,41.1C343.5,531.7,343.3,531.7,343.1,531.7z"/>
	</g>
</g>
</svg>
