<?xml version="1.0" encoding="utf-8"?>
<!-- Generator: Adobe Illustrator 17.1.0, SVG Export Plug-In . SVG Version: 6.00 Build 0)  -->
<!DOCTYPE svg PUBLIC "-//W3C//DTD SVG 1.1//EN" "http://www.w3.org/Graphics/SVG/1.1/DTD/svg11.dtd">
<svg version="1.1" id="Layer_1" xmlns="http://www.w3.org/2000/svg" xmlns:xlink="http://www.w3.org/1999/xlink" x="0px" y="0px"
	 viewBox="0 89.6 612 612.4" enable-background="new 0 89.6 612 612.4" xml:space="preserve">
<g>
	<g>
		<g>
			<path fill="#FFFFFF" d="M300.3,92.8c4.9,0,9.6,0,14.5,0c89.5,5.2,155.9,38.7,203.7,86.6c48.1,48,83.1,112,90.3,200.2
				c0,9.1,0,18.3,0,27.4c-5.7,92.6-41,156-90.6,205.8c-24.3,24.3-54.4,44.3-88.6,59.6c-34.5,15.5-74.5,25.2-121.2,26.6
				c-47.4,1.5-90.2-10.8-123.2-25c-35.1-15-63.3-35.9-88.6-59.1c-25.9-23.9-46.3-52.6-62.8-85.4C17.1,496.2,7.3,456.9,3.1,412.1
				c0-9.1,0-18.3,0-27.4c0.3-0.1,0.4-0.3,0.4-0.8c4.5-92,41.2-155.6,89.8-204.1C142,131.2,208.5,97.4,300.3,92.8z M258.5,109.7
				c-72.1,12.2-125.7,45.3-165.1,88.6C69.8,224.2,51.4,251.1,37,287c-13.6,33.6-23.5,75.4-21,123.2c4.8,90.2,42.4,150.6,91.9,198.1
				c24.2,23.2,53.7,42.6,88.2,56.8c34.7,14.3,77.9,22.8,124,20.6c45.2-2.1,82.8-13.6,115.2-29.8c32.7-16.5,59.1-36.8,82.9-62.1
				c23.1-24.6,42.8-53.7,56.8-88.2c14-34.8,23.2-74.9,21-123.2c-4.3-90.3-43.1-152.1-91.4-198.5c-24-23.2-53.8-42.8-88.2-56.8
				c-34.5-14.1-77.5-23.2-124.4-21C281,106.6,269.6,107.8,258.5,109.7z"/>
		</g>
		<g>
			<path fill="#FFFFFF" d="M351.4,121.3c-0.4,3.9-3.8,6.4-6,9.2c-15.4,19.3-29.1,41.1-39.4,66c-2.7-2.4-3.2-6.7-4.9-10.5
				c-8.9-20.8-22.2-39.4-35.4-56.3c-2.1-2.8-4.3-5.7-6-8.8C286.7,116.3,325.2,115.4,351.4,121.3z"/>
		</g>
		<g>
			<path fill="#FFFFFF" d="M366.8,123.8c33.6,7.8,63.2,19.4,87.4,36.6c-2.7,15.1-11.3,24-21,32.2c-45.7,3.2-82.5,14.4-112.7,33.4
				c-4.3,2.7-7.8,6-12.4,8.1C317.5,187.3,339.1,152.5,366.8,123.8z"/>
		</g>
		<g>
			<path fill="#FFFFFF" d="M297.5,229.3c-15.5-8.8-30.9-16.6-49.1-22.9c-8.8-3.1-17.9-5.7-27.8-8.1c-9.6-2.2-20-4.6-30.6-5.2
				c-3.5-0.3-7.8,0.7-11.3-0.4c-5.3-1.7-9.4-8.7-12.9-13.7c-3.2-4.6-9.4-12-8.1-18.2c0.6-2.7,5.5-5.2,8.4-6.9
				c19.9-10.8,40.8-19.6,64.9-26.6c3.9-1.1,9.1-3.1,12-3.2c4.3-0.1,7.3,4.5,10.1,8.1c13.8,17.3,25.6,33.6,35.4,54.8
				c3.9,8.4,8.5,17.6,10.1,25.7C299.7,218.2,299,225.9,297.5,229.3z"/>
		</g>
		<g>
			<path fill="#FFFFFF" d="M160.6,192.2c-34.4,4.5-54,23.6-58,58.4c-4.2-2.2-7.7-5.3-11.7-7.7c-4.1-2.4-8.2-4.6-13.7-5.6
				c3.9-7.4,9.4-13.6,14.5-19.7c10.2-12.3,21.3-24.2,33.8-34.7c6.6-5.5,13.6-10.5,20.6-15.7c0.3,0,0.6,0,0.8,0
				c1.8,4.8,3.6,9.2,6,13.3C155.3,184.7,158.6,188,160.6,192.2z"/>
		</g>
		<g>
			<path fill="#FFFFFF" d="M464.3,167.3c14.8,8.4,27,19.7,38.6,31.5c8.8,8.8,16.6,18,24.6,28.2c2.5,3.2,5.7,6,7.3,10.1
				c-10.3,2.5-16.9,8.8-25.3,13.3c-4.2-34.4-23.8-53.6-57.6-58.4c0.6-3.8,3.8-6.2,5.6-8.8C460.4,178.6,462.7,173.9,464.3,167.3z"/>
		</g>
		<g>
			<path fill="#FFFFFF" d="M151.4,381.1c-2.4,0-3.1-2.5-4.1-4.1c-14.7-24.3-26.3-53.6-31-88.5c-2.7-19.9-4.2-42.2,2.4-56.8
				c7.1-15.8,23.5-28.9,48.4-27c21.3,1.7,37.8,17.1,42.2,38.3c1.4,6.4,2.7,13.8,0.8,19.7c-1.4,4.5-6.2,8.2-9.6,12.4
				c-3.6,4.3-6.6,9.2-9.2,12.9C172.5,314.4,158.2,343.6,151.4,381.1z"/>
		</g>
		<g>
			<path fill="#FFFFFF" d="M460.2,380.7c-8-43.8-24.9-76.1-48.7-105.1c-3.2-3.9-8.4-8.2-9.6-12c-2.2-6.7-0.3-16.8,1.3-22.9
				c5-21.1,23.8-37.8,51.2-35.8c27.8,2,43.5,23.4,43.9,52.3c0.7,47.1-13.6,87.2-31.9,116.3c-0.8,1.4-2,2.8-2.8,4.1
				C462.6,378.7,462,380.7,460.2,380.7z"/>
		</g>
		<g>
			<path fill="#FFFFFF" d="M298.3,261.6c-1.8,3.6-4.2,7.4-5.6,12c-5.3,16.4-3.8,40.7,5.6,52.7c-3.1,3.8-4.8,8.7-9.2,10.1
				c-2.7,0.8-6.4,0.6-9.6,0.8c-40,3.5-75.8,16.4-103,33c-4.2,2.5-8,5.9-12.4,8.1c8.1-43.8,31.2-81.9,58.4-111.2
				c9.5-10.2,21.5-19.9,37.1-21C278.2,244.8,288.8,252.6,298.3,261.6z"/>
		</g>
		<g>
			<path fill="#FFFFFF" d="M448.1,377.9c-5.6-0.8-9.6-4.8-13.7-7.3c-27.4-17.1-60.1-29.9-102.4-33.4c-3.1-0.3-6.7,0-9.2-0.8
				c-2.8-1-5.6-4.8-7.7-7.3c-8.2-9.8-15.9-19.9-14.5-39c1.8-24.6,21.4-42.2,43.9-43.9c9.9-0.7,19.6,1.7,26.1,5.2
				c9.9,5.3,19,15.2,27,24.2C421.9,302.7,439,337.2,448.1,377.9z"/>
		</g>
		<g>
			<path fill="#FFFFFF" d="M70.4,247.4c6.2,0.7,12.6,3.5,18.9,8.1c5.3,3.8,12.2,8.1,13.7,12.9c0.8,2.7,0.6,6.4,0.8,9.6
				c3.4,39.8,15.5,75.8,32.2,103c2.5,4.2,6,7.8,8.1,12.4c-41-7.6-71.4-26.3-99-48.7c-3.5-2.8-10.2-6.7-10.9-10.1
				c-0.7-3.2,1.5-8.1,2.8-12.4C45,294.3,56.3,267.6,70.4,247.4z"/>
		</g>
		<g>
			<path fill="#FFFFFF" d="M472.7,386.7c0.7-4.3,3.9-7.6,6-11.3c10.2-17.2,18.5-38.5,23.8-61.7c2.1-9.2,4.5-19.2,5.2-28.5
				c0.4-5.5-0.6-11.5,1.3-16.5c1.7-4.6,8.1-9.6,12.4-12.9c5.7-4.2,11.5-6.4,17.3-8.1c4.5-1.3,6.7,4.2,8.8,8.1
				c11.6,20.1,19.6,41.5,27,65.6c1.3,4.2,3.5,9.1,3.2,12c-0.3,3.1-5,7.3-8.4,10.1c-20.8,17.5-42.1,30.8-69.6,41.1
				C491.8,387.7,481.3,392.2,472.7,386.7z"/>
		</g>
		<g>
			<path fill="#FFFFFF" d="M31,349.4c0.3,0.1,1-0.1,1.3,0c22.2,18,45.9,34.8,74.9,45.9c-0.7,2-3.2,2.5-4.9,3.2
				c-23.4,9.9-43.3,22.8-62.4,37.5c-2.9,2.2-5.5,5-8.8,6.4C26.2,414.1,26.2,377.6,31,349.4z"/>
		</g>
		<g>
			<path fill="#FFFFFF" d="M579.4,349.4c0.3,0,0.6,0,0.8,0c6.4,26.8,5,64.7,0.8,93c-3.5-1.5-6-4.2-8.8-6.4
				c-19.7-15.2-41.4-29.6-67.3-39.4c0.4-2.4,3.4-2.2,4.9-2.8c21.5-9.1,43.1-22.2,60.4-36.2c3.2-2.7,6.2-5.3,8.8-8.1
				C579.1,349.4,579.2,349.4,579.4,349.4z"/>
		</g>
		<g>
			<path fill="#FFFFFF" d="M266.2,350.1c-1.3,3.6-4.6,5.5-6.9,8.4c-7.6,9.9-14.3,24.6-12.9,43.5c0.8,12.3,6.4,22.4,12,30.2
				c2.1,2.8,4.6,4.9,6,8.1c-41.8-6.7-75.6-21.3-101.1-44.3c0.3-2.5,2.8-3.5,4.5-4.9c24.7-21,58-34.4,97.5-41.1
				C265.6,350.1,265.9,350.1,266.2,350.1z"/>
		</g>
		<g>
			<g>
				<path fill="#FFFFFF" d="M300.3,350.9c17.3-1.4,31.7,6.2,39.4,15.7c4.5,5.6,10.1,16.2,10.9,27.4c0.8,13-3.4,23.6-8.4,30.6
					c-14.4,19.7-49.6,26-70.5,5.6c-6.6-6.4-12.9-17.9-13.7-29.4c-1.5-19.7,6.9-33.3,18.5-41.9C282.8,354.4,289.8,351.7,300.3,350.9z
					 M286.3,367.4c-4.5,2.8-9.5,8-12,13.3c-12.6,25.7,7.4,52.3,34.3,49.5c21.3-2.2,38.6-26.7,26.6-49.5
					c-4.9-9.4-17.2-18.9-31.5-18.2C297.1,362.9,290.2,365,286.3,367.4z"/>
			</g>
		</g>
		<g>
			<path fill="#FFFFFF" d="M467.5,398.4c23.4,4.1,44.9,12,62.8,22.1s33.8,22.7,47.5,36.6c-7.6,33.6-19.7,62.4-36.2,87
				c-9.6-1.5-18.6-6.6-25.3-12.4c-2.9-2.5-6.4-6.2-7.3-8.8c-0.8-2.8-0.6-6.4-0.8-9.6c-3.9-46-18.9-84.3-40.3-113.5
				C467.4,399.6,467.5,398.9,467.5,398.4z"/>
		</g>
		<g>
			<path fill="#FFFFFF" d="M139.2,404.9c-1,5-4.6,8.5-6.9,12.4c-11,19.7-20.1,44.7-25.3,71.3c-1,5.2-1.8,11-2.4,16.9
				c-0.6,5.7,0.1,12.6-1.7,17.3c-1.8,5-8.4,9.8-13.3,13.3c-5.7,4.1-12.2,6.7-18.5,8.1c-3.4-2.2-4.5-6-6.4-9.2
				c-11.6-19.2-19.7-40-27.4-64.9c-1.3-4.2-3.5-8.9-3.2-12c0.6-5.9,14.1-14.8,18.5-18.2c21.3-15.8,45.9-28.4,72.1-37.5
				C129.5,400.8,135,403.3,139.2,404.9z"/>
		</g>
		<g>
			<path fill="#FFFFFF" d="M460.2,410.9c0-0.6,0-1.1,0.4-1.3c0.3,0,0.6,0,0.8,0c16.8,26.1,29.6,56.1,34.7,93.8
				c2.5,19.3,4.1,42.9-2.8,57.2c-6.4,13.6-19.6,24.7-37.9,26.1c-26.6,2.1-44.6-12.7-51.2-31.5c-2.1-6-4.9-18.3-2.4-26.6
				c1.4-4.6,6.2-8.2,9.6-12.4c9.9-11.7,18.9-26,26.1-39.8C448.3,456.2,455.6,437.2,460.2,410.9z"/>
		</g>
		<g>
			<path fill="#FFFFFF" d="M150.1,410.9c-0.1-0.3,0.1-0.4,0.4-0.4s0.6,0,0.8,0c7.6,37.9,20.4,66.4,39.8,93.4c2.7,3.8,6,8.2,9.6,12.4
				c3.4,3.8,8.5,8.4,9.6,12.4c2.5,9.2-1.7,23.1-4.5,29.4c-5.7,13.1-14.4,21.7-27.8,26.1c-3.6,1.3-7.1,2.1-10.9,2.4
				c-23.4,1.8-36.6-8-45.2-21.4c-8.9-14.3-9.9-33.3-7.3-56.3C119.5,470.6,133.3,436.1,150.1,410.9z"/>
		</g>
		<g>
			<path fill="#FFFFFF" d="M163.8,413.7c0-0.4,0-0.8,0-1.3c0.3,0.1,0.6-0.1,0.8,0c4.5,2.5,8.7,5.5,12.9,8.1
				c24.7,15.5,55.6,28.5,92.6,32.2c6,0.6,12.7,0.3,18.2,2.4c4.3,1.7,7,5.6,9.6,8.8c6.4,7.8,12.3,15.7,13.3,28.9
				c1.4,17.9-5.9,31.5-17.3,40.7c-10.6,8.7-27,15.2-44.7,10.1c-15.5-4.6-26-17.6-35.8-29.8C190.6,486,171.9,456.1,163.8,413.7z"/>
		</g>
		<g>
			<path fill="#FFFFFF" d="M447.4,412.6c1.4,0.7,0.4,4.1,0,6c-6,28.7-18.7,54.4-33.4,75.6c-7.6,10.9-16.2,22-26.1,32.2
				c-9.6,10.1-22,18.9-39,18.9c-16.4,0-26.7-6.9-35.1-15.7c11.2-14.3,12.2-50.1,0-64c1-2.2,2.7-4.3,4.1-6c1.4-1.8,3.1-4.1,5.2-4.9
				c5.3-2.1,11-0.8,16.9-1.3c10.1-0.7,21-3.1,31-5.6c18.9-4.9,36.8-12,52.3-20.6c8.4-4.6,16.6-9.1,23.8-15
				C447.1,412.6,447.2,412.6,447.4,412.6z"/>
		</g>
		<g>
			<path fill="#FFFFFF" d="M221.8,540.9c0.4,0,0.8,0,1.3,0c8,8.5,22.9,14.8,39,15.7c10.6,0.6,22.9-3.8,32.3-8.2
				c-2.5,3.8-8.4,7.3-11.5,9.1c-22.1,13.3-49.5,22.9-80.8,27.4c4.9-5.5,5.3-6.2,7.6-9.1c6.6-8.7,10.9-19.2,12.2-33.6
				C221.8,541.8,221.8,541.3,221.8,540.9z"/>
		</g>
		<g>
			<path fill="#FFFFFF" d="M509.3,540.9c0.1,0,0.3,0,0.4,0c8.1,4.5,14.1,11.5,25,13.3c-3.9,7.6-9.6,13.8-15,20.1
				c-10.8,12.7-22,24.2-35.1,35.1c-6.3,5.3-12.6,11-20.1,15c-2.4-10.6-8.7-17.1-13.3-25.3C485.7,594.6,505.5,575.7,509.3,540.9z"/>
		</g>
		<g>
			<path fill="#FFFFFF" d="M101.4,541.3c1.5,1.5,1.7,3.9,2,5.6c6.6,29.4,23.8,48.7,57.2,52c-2,4.3-5.3,7.7-7.7,11.7
				c-2.4,4.1-4.3,8.4-5.6,13.7c-7.6-3.8-13.8-9.6-20.1-15c-12.9-10.6-24-22.1-35.1-35.1c-5.3-6.2-10.9-12.4-15-19.7
				C86.8,551.7,94.4,546.9,101.4,541.3z"/>
		</g>
		<g>
			<path fill="#FFFFFF" d="M157.4,631.3c2.9-15,11.5-24.5,21.4-32.6c51.6-3.2,91.9-18,123.6-41.1c0.3,0,0.6,0,0.8,0
				c-7.1,41.5-25.6,72.3-48.7,99.4c-2.8,3.2-7.1,10.3-10.1,10.9c-2,0.3-9.9-2.5-12.4-3.2C203.8,656.8,178.3,645.5,157.4,631.3z"/>
		</g>
		<g>
			<path fill="#FFFFFF" d="M454.5,630.4c-5.2,5.5-12.3,8.4-18.9,12c-18,9.8-37.8,17.6-61.2,23.8c-2.2,0.6-5.3,1.7-6,1.7
				c-2.4-0.3-6.6-5.7-9.6-9.2c-17.8-20.4-31.6-42.5-42.2-70.5c-2-4.9-4.3-9.8-4.5-14.1c-0.1-4.6,2.4-7.7,2.4-12
				c7.7,3.9,15.7,8.9,23.8,12.9c16.1,7.7,34.1,13.7,53.6,18.2c9.5,2.1,20,4.5,30.6,5.2c3.1,0.3,6.9-0.4,10.1,0.4
				c6,1.5,14.4,12.3,17.3,18.2C452,621,452.7,626.2,454.5,630.4z"/>
		</g>
		<g>
			<path fill="#FFFFFF" d="M306,594.2c0.3,0,0.6,0,0.8,0c9.1,26.7,23.8,47.3,39.4,67.7c2.2,2.8,4.8,5.5,6,8.8c-27.5,5-65.4,4.9-93,0
				c1.7-3.4,4.2-6,6.4-8.8c15.4-19.4,28.9-41.2,39.4-66.4C305.3,594.9,305.6,594.3,306,594.2z"/>
		</g>
	</g>
	<g>
		<path fill="#FFFFFF" d="M390.6,541.3c-0.4,0-0.8,0-1.3,0c-8,8.5-22.9,14.8-39,15.7c-10.6,0.6-22.9-3.8-32.3-8.2
			c2.5,3.8,8.4,7.3,11.5,9.1c22.1,13.3,49.5,22.9,80.8,27.4c-4.9-5.5-5.3-6.2-7.6-9.1c-6.6-8.7-10.9-19.2-12.2-33.6
			C390.6,542.2,390.6,541.8,390.6,541.3z"/>
	</g>
	<g>
		<path fill="#FFFFFF" d="M388.8,249.8c-0.4,0-0.8,0-1.3,0c-8-8.5-22.9-14.8-39-15.7c-10.6-0.6-22.9,3.8-32.3,8.2
			c2.5-3.8,8.4-7.3,11.5-9.1c22.1-13.3,49.5-22.9,80.8-27.4c-4.9,5.5-5.3,6.2-7.6,9.1c-6.6,8.7-10.9,19.2-12.2,33.6
			C388.8,249.1,388.8,249.4,388.8,249.8z"/>
	</g>
	<g>
		<path fill="#FFFFFF" d="M221.8,249.8c0.4,0,0.8,0,1.3,0c8-8.5,22.9-14.8,39-15.7c10.6-0.6,22.9,3.8,32.3,8.2
			c-2.5-3.8-8.4-7.3-11.5-9.1c-22.1-13.3-49.5-22.9-80.8-27.4c4.9,5.5,5.3,6.2,7.6,9.1c6.6,8.7,10.9,19.2,12.2,33.6
			C221.8,249.1,221.8,249.4,221.8,249.8z"/>
	</g>
	<g>
		<path fill="#FFFFFF" d="M343.1,441.9c1.3-3.6,4.6-5.5,6.9-8.4c7.6-9.9,14.3-24.6,12.9-43.5c-0.8-12.3-6.4-22.4-12-30.2
			c-2.1-2.8-4.6-4.9-6-8.1c41.8,6.7,75.6,21.3,101.1,44.3c-0.3,2.5-2.8,3.5-4.5,4.9c-24.7,21-58,34.4-97.5,41.1
			C343.5,441.9,343.3,441.9,343.1,441.9z"/>
	</g>
</g>
</svg>
