<?xml version="1.0" encoding="utf-8"?>
<!-- Generator: Adobe Illustrator 20.1.0, SVG Export Plug-In . SVG Version: 6.00 Build 0)  -->
<svg version="1.1" id="Layer_1" xmlns="http://www.w3.org/2000/svg" xmlns:xlink="http://www.w3.org/1999/xlink" x="0px" y="0px"
	 viewBox="0 0 612 612.4" style="enable-background:new 0 0 612 612.4;" xml:space="preserve">
<style type="text/css">
	.st0{fill:#585858;}
</style>
<g>
	<g>
		<g>
			<path class="st0" d="M297.2,0c4.9,0,9.6,0,14.5,0c89.5,5.2,155.9,38.7,203.7,86.6c48.1,48,83.1,112,90.3,200.2
				c0,9.1,0,18.3,0,27.4c-5.7,92.6-41,156-90.6,205.8c-24.3,24.3-54.4,44.3-88.6,59.6c-34.5,15.5-74.5,25.2-121.2,26.6
				c-47.4,1.5-90.2-10.8-123.2-25c-35.1-15-63.3-35.9-88.6-59.1c-25.9-23.9-46.3-52.6-62.8-85.4C14,403.4,4.2,364.1,0,319.3
				c0-9.1,0-18.3,0-27.4c0.3-0.1,0.4-0.3,0.4-0.8c4.5-92,41.2-155.6,89.8-204.1C138.9,38.4,205.4,4.6,297.2,0z M255.4,16.9
				c-72.1,12.2-125.7,45.3-165.1,88.6c-23.6,25.9-42,52.8-56.4,88.7c-13.6,33.6-23.5,75.4-21,123.2c4.8,90.2,42.4,150.6,91.9,198.1
				c24.2,23.2,53.7,42.6,88.2,56.8c34.7,14.3,77.9,22.8,124,20.6c45.2-2.1,82.8-13.6,115.2-29.8c32.7-16.5,59.1-36.8,82.9-62.1
				c23.1-24.6,42.8-53.7,56.8-88.2c14-34.8,23.2-74.9,21-123.2c-4.3-90.3-43.1-152.1-91.4-198.5c-24-23.2-53.8-42.8-88.2-56.8
				c-34.5-14.1-77.5-23.2-124.4-21C277.9,13.8,266.5,15,255.4,16.9z"/>
		</g>
		<g>
			<path class="st0" d="M348.3,28.5c-0.4,3.9-3.8,6.4-6,9.2c-15.4,19.3-29.1,41.1-39.4,66c-2.7-2.4-3.2-6.7-4.9-10.5
				c-8.9-20.8-22.2-39.4-35.4-56.3c-2.1-2.8-4.3-5.7-6-8.8C283.6,23.5,322.1,22.6,348.3,28.5z"/>
		</g>
		<g>
			<path class="st0" d="M363.7,31c33.6,7.8,63.2,19.4,87.4,36.6c-2.7,15.1-11.3,24-21,32.2c-45.7,3.2-82.5,14.4-112.7,33.4
				c-4.3,2.7-7.8,6-12.4,8.1C314.4,94.5,336,59.7,363.7,31z"/>
		</g>
		<g>
			<path class="st0" d="M294.4,136.5c-15.5-8.8-30.9-16.6-49.1-22.9c-8.8-3.1-17.9-5.7-27.8-8.1c-9.6-2.2-20-4.6-30.6-5.2
				c-3.5-0.3-7.8,0.7-11.3-0.4c-5.3-1.7-9.4-8.7-12.9-13.7c-3.2-4.6-9.4-12-8.1-18.2c0.6-2.7,5.5-5.2,8.4-6.9
				c19.9-10.8,40.8-19.6,64.9-26.6c3.9-1.1,9.1-3.1,12-3.2c4.3-0.1,7.3,4.5,10.1,8.1c13.8,17.3,25.6,33.6,35.4,54.8
				c3.9,8.4,8.5,17.6,10.1,25.7C296.6,125.4,295.9,133.1,294.4,136.5z"/>
		</g>
		<g>
			<path class="st0" d="M157.5,99.4c-34.4,4.5-54,23.6-58,58.4c-4.2-2.2-7.7-5.3-11.7-7.7c-4.1-2.4-8.2-4.6-13.7-5.6
				c3.9-7.4,9.4-13.6,14.5-19.7c10.2-12.3,21.3-24.2,33.8-34.7C129,84.6,136,79.6,143,74.4c0.3,0,0.6,0,0.8,0
				c1.8,4.8,3.6,9.2,6,13.3C152.2,91.9,155.5,95.2,157.5,99.4z"/>
		</g>
		<g>
			<path class="st0" d="M461.2,74.5c14.8,8.4,27,19.7,38.6,31.5c8.8,8.8,16.6,18,24.6,28.2c2.5,3.2,5.7,6,7.3,10.1
				c-10.3,2.5-16.9,8.8-25.3,13.3c-4.2-34.4-23.8-53.6-57.6-58.4c0.6-3.8,3.8-6.2,5.6-8.8C457.3,85.8,459.6,81.1,461.2,74.5z"/>
		</g>
		<g>
			<path class="st0" d="M148.3,288.3c-2.4,0-3.1-2.5-4.1-4.1c-14.7-24.3-26.3-53.6-31-88.5c-2.7-19.9-4.2-42.2,2.4-56.8
				c7.1-15.8,23.5-28.9,48.4-27c21.3,1.7,37.8,17.1,42.2,38.3c1.4,6.4,2.7,13.8,0.8,19.7c-1.4,4.5-6.2,8.2-9.6,12.4
				c-3.6,4.3-6.6,9.2-9.2,12.9C169.4,221.6,155.1,250.8,148.3,288.3z"/>
		</g>
		<g>
			<path class="st0" d="M457.1,287.9c-8-43.8-24.9-76.1-48.7-105.1c-3.2-3.9-8.4-8.2-9.6-12c-2.2-6.7-0.3-16.8,1.3-22.9
				c5-21.1,23.8-37.8,51.2-35.8c27.8,2,43.5,23.4,43.9,52.3c0.7,47.1-13.6,87.2-31.9,116.3c-0.8,1.4-2,2.8-2.8,4.1
				C459.5,285.9,458.9,287.9,457.1,287.9z"/>
		</g>
		<g>
			<path class="st0" d="M295.2,168.8c-1.8,3.6-4.2,7.4-5.6,12c-5.3,16.4-3.8,40.7,5.6,52.7c-3.1,3.8-4.8,8.7-9.2,10.1
				c-2.7,0.8-6.4,0.6-9.6,0.8c-40,3.5-75.8,16.4-103,33c-4.2,2.5-8,5.9-12.4,8.1c8.1-43.8,31.2-81.9,58.4-111.2
				c9.5-10.2,21.5-19.9,37.1-21C275.1,152,285.7,159.8,295.2,168.8z"/>
		</g>
		<g>
			<path class="st0" d="M445,285.1c-5.6-0.8-9.6-4.8-13.7-7.3c-27.4-17.1-60.1-29.9-102.4-33.4c-3.1-0.3-6.7,0-9.2-0.8
				c-2.8-1-5.6-4.8-7.7-7.3c-8.2-9.8-15.9-19.9-14.5-39c1.8-24.6,21.4-42.2,43.9-43.9c9.9-0.7,19.6,1.7,26.1,5.2
				c9.9,5.3,19,15.2,27,24.2C418.8,209.9,435.9,244.4,445,285.1z"/>
		</g>
		<g>
			<path class="st0" d="M67.3,154.6c6.2,0.7,12.6,3.5,18.9,8.1c5.3,3.8,12.2,8.1,13.7,12.9c0.8,2.7,0.6,6.4,0.8,9.6
				c3.4,39.8,15.5,75.8,32.2,103c2.5,4.2,6,7.8,8.1,12.4c-41-7.6-71.4-26.3-99-48.7c-3.5-2.8-10.2-6.7-10.9-10.1
				c-0.7-3.2,1.5-8.1,2.8-12.4C41.9,201.5,53.2,174.8,67.3,154.6z"/>
		</g>
		<g>
			<path class="st0" d="M469.6,293.9c0.7-4.3,3.9-7.6,6-11.3c10.2-17.2,18.5-38.5,23.8-61.7c2.1-9.2,4.5-19.2,5.2-28.5
				c0.4-5.5-0.6-11.5,1.3-16.5c1.7-4.6,8.1-9.6,12.4-12.9c5.7-4.2,11.5-6.4,17.3-8.1c4.5-1.3,6.7,4.2,8.8,8.1
				c11.6,20.1,19.6,41.5,27,65.6c1.3,4.2,3.5,9.1,3.2,12c-0.3,3.1-5,7.3-8.4,10.1c-20.8,17.5-42.1,30.8-69.6,41.1
				C488.7,294.9,478.2,299.4,469.6,293.9z"/>
		</g>
		<g>
			<path class="st0" d="M27.9,256.6c0.3,0.1,1-0.1,1.3,0c22.2,18,45.9,34.8,74.9,45.9c-0.7,2-3.2,2.5-4.9,3.2
				c-23.4,9.9-43.3,22.8-62.4,37.5c-2.9,2.2-5.5,5-8.8,6.4C23.1,321.3,23.1,284.8,27.9,256.6z"/>
		</g>
		<g>
			<path class="st0" d="M576.3,256.6c0.3,0,0.6,0,0.8,0c6.4,26.8,5,64.7,0.8,93c-3.5-1.5-6-4.2-8.8-6.4
				c-19.7-15.2-41.4-29.6-67.3-39.4c0.4-2.4,3.4-2.2,4.9-2.8c21.5-9.1,43.1-22.2,60.4-36.2c3.2-2.7,6.2-5.3,8.8-8.1
				C576,256.6,576.1,256.6,576.3,256.6z"/>
		</g>
		<g>
			<path class="st0" d="M263.1,257.3c-1.3,3.6-4.6,5.5-6.9,8.4c-7.6,9.9-14.3,24.6-12.9,43.5c0.8,12.3,6.4,22.4,12,30.2
				c2.1,2.8,4.6,4.9,6,8.1c-41.8-6.7-75.6-21.3-101.1-44.3c0.3-2.5,2.8-3.5,4.5-4.9c24.7-21,58-34.4,97.5-41.1
				C262.5,257.3,262.8,257.3,263.1,257.3z"/>
		</g>
		<g>
			<g>
				<path class="st0" d="M297.2,258.1c17.3-1.4,31.7,6.2,39.4,15.7c4.5,5.6,10.1,16.2,10.9,27.4c0.8,13-3.4,23.6-8.4,30.6
					c-14.4,19.7-49.6,26-70.5,5.6c-6.6-6.4-12.9-17.9-13.7-29.4c-1.5-19.7,6.9-33.3,18.5-41.9C279.7,261.6,286.7,258.9,297.2,258.1z
					 M283.2,274.6c-4.5,2.8-9.5,8-12,13.3c-12.6,25.7,7.4,52.3,34.3,49.5c21.3-2.2,38.6-26.7,26.6-49.5
					c-4.9-9.4-17.2-18.9-31.5-18.2C294,270.1,287.1,272.2,283.2,274.6z"/>
			</g>
		</g>
		<g>
			<path class="st0" d="M464.4,305.6c23.4,4.1,44.9,12,62.8,22.1c17.9,10.1,33.8,22.7,47.5,36.6c-7.6,33.6-19.7,62.4-36.2,87
				c-9.6-1.5-18.6-6.6-25.3-12.4c-2.9-2.5-6.4-6.2-7.3-8.8c-0.8-2.8-0.6-6.4-0.8-9.6c-3.9-46-18.9-84.3-40.3-113.5
				C464.3,306.8,464.4,306.1,464.4,305.6z"/>
		</g>
		<g>
			<path class="st0" d="M136.1,312.1c-1,5-4.6,8.5-6.9,12.4c-11,19.7-20.1,44.7-25.3,71.3c-1,5.2-1.8,11-2.4,16.9
				c-0.6,5.7,0.1,12.6-1.7,17.3c-1.8,5-8.4,9.8-13.3,13.3c-5.7,4.1-12.2,6.7-18.5,8.1c-3.4-2.2-4.5-6-6.4-9.2
				c-11.6-19.2-19.7-40-27.4-64.9c-1.3-4.2-3.5-8.9-3.2-12c0.6-5.9,14.1-14.8,18.5-18.2c21.3-15.8,45.9-28.4,72.1-37.5
				C126.4,308,131.9,310.5,136.1,312.1z"/>
		</g>
		<g>
			<path class="st0" d="M457.1,318.1c0-0.6,0-1.1,0.4-1.3c0.3,0,0.6,0,0.8,0c16.8,26.1,29.6,56.1,34.7,93.8
				c2.5,19.3,4.1,42.9-2.8,57.2c-6.4,13.6-19.6,24.7-37.9,26.1c-26.6,2.1-44.6-12.7-51.2-31.5c-2.1-6-4.9-18.3-2.4-26.6
				c1.4-4.6,6.2-8.2,9.6-12.4c9.9-11.7,18.9-26,26.1-39.8C445.2,363.4,452.5,344.4,457.1,318.1z"/>
		</g>
		<g>
			<path class="st0" d="M147,318.1c-0.1-0.3,0.1-0.4,0.4-0.4s0.6,0,0.8,0c7.6,37.9,20.4,66.4,39.8,93.4c2.7,3.8,6,8.2,9.6,12.4
				c3.4,3.8,8.5,8.4,9.6,12.4c2.5,9.2-1.7,23.1-4.5,29.4c-5.7,13.1-14.4,21.7-27.8,26.1c-3.6,1.3-7.1,2.1-10.9,2.4
				c-23.4,1.8-36.6-8-45.2-21.4c-8.9-14.3-9.9-33.3-7.3-56.3C116.4,377.8,130.2,343.3,147,318.1z"/>
		</g>
		<g>
			<path class="st0" d="M160.7,320.9c0-0.4,0-0.8,0-1.3c0.3,0.1,0.6-0.1,0.8,0c4.5,2.5,8.7,5.5,12.9,8.1
				c24.7,15.5,55.6,28.5,92.6,32.2c6,0.6,12.7,0.3,18.2,2.4c4.3,1.7,7,5.6,9.6,8.8c6.4,7.8,12.3,15.7,13.3,28.9
				c1.4,17.9-5.9,31.5-17.3,40.7c-10.6,8.7-27,15.2-44.7,10.1c-15.5-4.6-26-17.6-35.8-29.8C187.5,393.2,168.8,363.3,160.7,320.9z"/>
		</g>
		<g>
			<path class="st0" d="M444.3,319.8c1.4,0.7,0.4,4.1,0,6c-6,28.7-18.7,54.4-33.4,75.6c-7.6,10.9-16.2,22-26.1,32.2
				c-9.6,10.1-22,18.9-39,18.9c-16.4,0-26.7-6.9-35.1-15.7c11.2-14.3,12.2-50.1,0-64c1-2.2,2.7-4.3,4.1-6c1.4-1.8,3.1-4.1,5.2-4.9
				c5.3-2.1,11-0.8,16.9-1.3c10.1-0.7,21-3.1,31-5.6c18.9-4.9,36.8-12,52.3-20.6c8.4-4.6,16.6-9.1,23.8-15
				C444,319.8,444.1,319.8,444.3,319.8z"/>
		</g>
		<g>
			<path class="st0" d="M218.7,448.1c0.4,0,0.8,0,1.3,0c8,8.5,22.9,14.8,39,15.7c10.6,0.6,22.9-3.8,32.3-8.2
				c-2.5,3.8-8.4,7.3-11.5,9.1c-22.1,13.3-49.5,22.9-80.8,27.4c4.9-5.5,5.3-6.2,7.6-9.1c6.6-8.7,10.9-19.2,12.2-33.6
				C218.7,449,218.7,448.5,218.7,448.1z"/>
		</g>
		<g>
			<path class="st0" d="M506.2,448.1c0.1,0,0.3,0,0.4,0c8.1,4.5,14.1,11.5,25,13.3c-3.9,7.6-9.6,13.8-15,20.1
				c-10.8,12.7-22,24.2-35.1,35.1c-6.3,5.3-12.6,11-20.1,15c-2.4-10.6-8.7-17.1-13.3-25.3C482.6,501.8,502.4,482.9,506.2,448.1z"/>
		</g>
		<g>
			<path class="st0" d="M98.3,448.5c1.5,1.5,1.7,3.9,2,5.6c6.6,29.4,23.8,48.7,57.2,52c-2,4.3-5.3,7.7-7.7,11.7
				c-2.4,4.1-4.3,8.4-5.6,13.7c-7.6-3.8-13.8-9.6-20.1-15c-12.9-10.6-24-22.1-35.1-35.1c-5.3-6.2-10.9-12.4-15-19.7
				C83.7,458.9,91.3,454.1,98.3,448.5z"/>
		</g>
		<g>
			<path class="st0" d="M154.3,538.5c2.9-15,11.5-24.5,21.4-32.6c51.6-3.2,91.9-18,123.6-41.1c0.3,0,0.6,0,0.8,0
				c-7.1,41.5-25.6,72.3-48.7,99.4c-2.8,3.2-7.1,10.3-10.1,10.9c-2,0.3-9.9-2.5-12.4-3.2C200.7,564,175.2,552.7,154.3,538.5z"/>
		</g>
		<g>
			<path class="st0" d="M451.4,537.6c-5.2,5.5-12.3,8.4-18.9,12c-18,9.8-37.8,17.6-61.2,23.8c-2.2,0.6-5.3,1.7-6,1.7
				c-2.4-0.3-6.6-5.7-9.6-9.2c-17.8-20.4-31.6-42.5-42.2-70.5c-2-4.9-4.3-9.8-4.5-14.1c-0.1-4.6,2.4-7.7,2.4-12
				c7.7,3.9,15.7,8.9,23.8,12.9c16.1,7.7,34.1,13.7,53.6,18.2c9.5,2.1,20,4.5,30.6,5.2c3.1,0.3,6.9-0.4,10.1,0.4
				c6,1.5,14.4,12.3,17.3,18.2C448.9,528.2,449.6,533.4,451.4,537.6z"/>
		</g>
		<g>
			<path class="st0" d="M302.9,501.4c0.3,0,0.6,0,0.8,0c9.1,26.7,23.8,47.3,39.4,67.7c2.2,2.8,4.8,5.5,6,8.8c-27.5,5-65.4,4.9-93,0
				c1.7-3.4,4.2-6,6.4-8.8c15.4-19.4,28.9-41.2,39.4-66.4C302.2,502.1,302.5,501.5,302.9,501.4z"/>
		</g>
	</g>
	<g>
		<path class="st0" d="M387.5,448.5c-0.4,0-0.8,0-1.3,0c-8,8.5-22.9,14.8-39,15.7c-10.6,0.6-22.9-3.8-32.3-8.2
			c2.5,3.8,8.4,7.3,11.5,9.1c22.1,13.3,49.5,22.9,80.8,27.4c-4.9-5.5-5.3-6.2-7.6-9.1c-6.6-8.7-10.9-19.2-12.2-33.6
			C387.5,449.4,387.5,449,387.5,448.5z"/>
	</g>
	<g>
		<path class="st0" d="M385.7,157c-0.4,0-0.8,0-1.3,0c-8-8.5-22.9-14.8-39-15.7c-10.6-0.6-22.9,3.8-32.3,8.2
			c2.5-3.8,8.4-7.3,11.5-9.1c22.1-13.3,49.5-22.9,80.8-27.4c-4.9,5.5-5.3,6.2-7.6,9.1c-6.6,8.7-10.9,19.2-12.2,33.6
			C385.7,156.3,385.7,156.6,385.7,157z"/>
	</g>
	<g>
		<path class="st0" d="M218.7,157c0.4,0,0.8,0,1.3,0c8-8.5,22.9-14.8,39-15.7c10.6-0.6,22.9,3.8,32.3,8.2c-2.5-3.8-8.4-7.3-11.5-9.1
			c-22.1-13.3-49.5-22.9-80.8-27.4c4.9,5.5,5.3,6.2,7.6,9.1c6.6,8.7,10.9,19.2,12.2,33.6C218.7,156.3,218.7,156.6,218.7,157z"/>
	</g>
	<g>
		<path class="st0" d="M340,349.1c1.3-3.6,4.6-5.5,6.9-8.4c7.6-9.9,14.3-24.6,12.9-43.5c-0.8-12.3-6.4-22.4-12-30.2
			c-2.1-2.8-4.6-4.9-6-8.1c41.8,6.7,75.6,21.3,101.1,44.3c-0.3,2.5-2.8,3.5-4.5,4.9c-24.7,21-58,34.4-97.5,41.1
			C340.4,349.1,340.2,349.1,340,349.1z"/>
	</g>
</g>
</svg>
